<svg id="_4" data-name="4" xmlns="http://www.w3.org/2000/svg" width="252" height="250" viewBox="0 0 252 250">
  <defs>
    <style>
      .cls-1 {
        fill: none;
        stroke: #cbf35b;
        stroke-width: 2px;
      }

      .cls-1, .cls-2 {
        fill-rule: evenodd;
      }

      .cls-2 {
        fill: #cdf500;
      }
    </style>
  </defs>
  <path id="楕円形_4" data-name="楕円形 4" class="cls-1" d="M1061.99,5879.87c69.03,0,125,55.52,125,124s-55.97,124-125,124-125-55.52-125-124S992.95,5879.87,1061.99,5879.87Z" transform="translate(-936 -5878.88)"/>
  <path id="_4-2" data-name="4" class="cls-2" d="M1060.4,6043.61a262,262,0,0,1-8.92,26.8c-2.8,6.8-3.34,11-1.59,12.4a6.544,6.544,0,0,0,5.65,2c2.47-.4,4.36-3.2,6.35-8.8,1.75-5.4,5.26-16.2,10.28-32.2,7.47-.4,12.67-0.4,15.96.2s5.31-.6,6.24-3.6c0.76-3.2-.29-5.2-2.91-6.2a32.73,32.73,0,0,0-7.45-2,46.331,46.331,0,0,0-7.89-.6c5.06-12.8,9.54-24.6,13.64-35.4a287.4,287.4,0,0,1,12.01-28.4c4.04-8.19,3.9-14.19-.56-18.39a7.026,7.026,0,0,0-3.53-.4c-1.27.4-4.57,7.8-9.55,22.39-5.01,14.8-12.93,34.8-23.65,60.4-12.13-.4-20.93-0.4-26.33-0.4,11.21-25,22.42-50,33.59-74.79a23.758,23.758,0,0,0-4.32-5c-1.91-1.6-3.44-2-5.18-1.2q-18.795,45.285-39.47,89.99c1.9,6.2,6.66,7.6,14.22,4.4A31.654,31.654,0,0,1,1060.4,6043.61Z" transform="translate(-936 -5878.88)"/>
</svg>
