<svg xmlns="http://www.w3.org/2000/svg" width="964.88" height="291.938" viewBox="0 0 964.88 291.938">
  <defs>
    <style>
      .cls-1 {
        fill: #323c55;
        fill-rule: evenodd;
      }
    </style>
  </defs>
  <path id="フルリモートで_デジタルマーケティングの_最前線に挑戦できる" data-name="フルリモートで デジタルマーケティングの 最前線に挑戦できる" class="cls-1" d="M768.534,408.841l-8.515-6.16a33.676,33.676,0,0,1-7.487.72H717.251c-2.64,0-7.849-.4-10.273-0.72l-2.411,13.68c2.108-.16,6.551-0.4,10.471-0.4h35.2A55.365,55.365,0,0,1,737.8,436.6c-7.7,7.84-17.983,14.88-34.7,18.48l8.516,11.6a83.085,83.085,0,0,0,36.523-22.48c8.515-9.28,13.938-21.441,17.184-28.961A47.706,47.706,0,0,1,768.534,408.841Zm36.4,51.441,6.91,6.64a34.528,34.528,0,0,1,4.3-2.64c9.684-4.56,22.93-13.44,30.862-21.68l-5.551-10.72c-6.2,7.04-14.016,12.8-20.453,15.28l6.937-39.361a53.216,53.216,0,0,1,1.965-7.52h-14.4a41.443,41.443,0,0,1-.592,7.44l-8.093,45.921A33.832,33.832,0,0,1,804.939,460.282Zm-37-1.6,10.459,7.84A61.238,61.238,0,0,0,796.864,443c3.5-8.08,6.691-24.8,8.425-34.641a69.173,69.173,0,0,1,2.064-8.08h-14.24a30.669,30.669,0,0,1-.572,8.24c-1.763,10-4.437,24.721-7.833,31.281C781.514,446.122,776.109,453.642,767.94,458.682Zm154.237-59.441h-14.64a63.89,63.89,0,0,1-.963,8.64l-2.918,16.561c-1.946,11.04-4.067,16.72-10.428,22.4-5.674,4.96-12.436,7.92-21.081,9.76l8.271,10.72c6.165-1.84,15.284-5.92,21.631-11.52,7.208-6.4,12.378-14.4,15.212-30.48l3.074-17.441C920.955,404.361,921.594,401.641,922.177,399.241Zm-37.167.72h-14a63.184,63.184,0,0,1-.793,6.32l-4.78,27.121c-0.437,2.48-1.363,5.92-1.725,7.52h14.08c0.206-2.08.639-5.44,0.991-7.44l4.794-27.2C884.083,403.4,884.5,401.961,885.01,399.961Zm62.773,2.24-2.115,12c2.508-.16,5.162-0.24,8.122-0.24h7.76l-2.072,11.761H947.8c-2.64,0-7.063-.32-9.355-0.48l-2.228,12.64c2.588-.16,7.111-0.4,9.511-0.4h11.68l-2.453,13.92c-1.579,8.96.9,14.4,16.983,14.4,7.44,0,17.322-.24,22.005-0.48l3.206-13.2c-6.273.64-13.718,1.12-20.6,1.12-5.92,0-8.363-1.12-7.559-5.68l1.777-10.08h22.88a72.4,72.4,0,0,1,8.114.24l2.11-12.4c-2.27.16-6.791,0.4-8.471,0.4H972.838l2.073-11.761h17.68c2.96,0,5.332.16,7.479,0.24l2.11-12a68.476,68.476,0,0,1-7.587.4h-38.8C952.832,402.6,950.234,402.361,947.783,402.2ZM1025,423.721L1022.58,439c2.99-.24,8.43-0.48,12.53-0.48h38.24c2.95,0,6.92.4,8.78,0.48l2.42-15.281c-2.11.16-5.7,0.561-8.94,0.561h-38.24C1033.84,424.282,1027.85,423.961,1025,423.721Zm82.85,30.4a99.3,99.3,0,0,1-3.09,12.08h15.2c0.23-3.6.87-9.92,1.25-12.08l3.62-20.56c7.95,3.04,18.16,7.28,25.51,11.44l7.9-13.52c-6.14-3.28-20.66-8.961-30.91-12.081l1.93-10.96a100.665,100.665,0,0,1,2.63-10.4h-15.12a56.451,56.451,0,0,1-.87,10.4Zm66.78-26.725-0.61,7.534c6.62-1.375,18.05-2.584,23.32-3.134a27.3,27.3,0,0,0-11.19,16.992c-2.11,11.934,7.69,18.093,19.1,18.863l3.92-7.534c-9.26-.5-17.16-3.74-15.56-12.813,1.16-6.545,7.41-13.639,14.38-15.4,3.04-.715,7.77-0.715,10.75-0.77l1.18-7.039c-3.93.165-9.98,0.5-15.73,0.99-10.21.824-19.43,1.649-24.12,2.034C1179.01,427.232,1176.84,427.342,1174.63,427.4Zm35.29,9.129-4.37,1.7a34.727,34.727,0,0,1,2.94,7.644l4.51-1.87A55.184,55.184,0,0,0,1209.92,436.526Zm6.61-2.53-4.35,1.87a38.536,38.536,0,0,1,3.2,7.424l4.48-1.98A67.694,67.694,0,0,0,1216.53,434Zm-535,97.325-2.228,12.641c2.269-.16,5.817-0.32,8.137-0.32h20.88a39.868,39.868,0,0,1-8.01,16.4,42.654,42.654,0,0,1-16.106,11.04l9.922,8.161c7.929-3.681,15.311-10.161,19.032-15.841a60.2,60.2,0,0,0,8.763-19.76h17.92c2.4,0,5.746.08,7.878,0.24l2.214-12.561a60.5,60.5,0,0,1-8.019.56h-52.4A66.092,66.092,0,0,1,681.533,531.321Zm62.673-25.6-8.056,3.04c0.287,0.64.641,1.36,0.914,2.08a71.975,71.975,0,0,1-8.245.48H703.458a69.752,69.752,0,0,1-9.167-.64l-2.186,12.4c2.669-.16,6.537-0.32,9.337-0.32H726.8c3.04,0,6.292.16,9.223,0.32l1.833-10.4c0.923,2.48,1.818,5.12,2.492,7.2l8.164-3.2A106.151,106.151,0,0,0,744.206,505.721Zm10.517-3.84-8.056,3.04a72.655,72.655,0,0,1,4.375,11.04l8.084-3.2A92.835,92.835,0,0,0,754.723,501.881Zm68.042,7.84L814.187,513c2.344,4.4,3.159,7.04,4.746,12.56l8.861-3.52A99.706,99.706,0,0,0,822.765,509.721Zm12.051-3.92-8.752,3.36a57.211,57.211,0,0,1,5.311,12.08l8.795-3.6A85.89,85.89,0,0,0,834.816,505.8Zm-46.782,2.16-8.929,10.72c5.05,3.12,12.294,8.32,16.53,11.52l9.09-10.72C800.714,516.361,793.1,511,788.034,507.961Zm-26.368,56.561,5.024,12.8c7.078-1.12,19.571-5.28,28.535-9.84,14.62-7.6,27.822-17.6,37.491-28.88l-5.1-13.281c-8.351,11.521-21.859,22.8-36.958,30.4A100.984,100.984,0,0,1,761.666,564.522Zm10.645-38.161-8.929,10.721a181.81,181.81,0,0,1,16.582,11.68L789,537.882A171.1,171.1,0,0,0,772.311,526.361Zm123.047-17.92-13.239-4.32a51.886,51.886,0,0,1-5.917,9.52c-5.425,6.72-14.218,17.12-29.915,25.841l9.056,8.08a129.667,129.667,0,0,0,24.65-20.481h20.56c-1.773,4.16-5.856,10.081-10.279,15.2-4.1-3.04-8.236-5.92-11.536-8.08l-10.205,8.88c3.191,2.32,7.333,5.6,11.513,9.12-7.232,6.08-16.689,12.08-31.211,16.4l9.56,9.761A94.965,94.965,0,0,0,889.116,560.2c2.815,2.64,5.258,5.12,7,7.04l11.226-11.04c-1.93-1.76-4.641-4.08-7.644-6.56A118.264,118.264,0,0,0,915,527.721a52.51,52.51,0,0,1,4.276-6.56l-8.688-6.08a32.265,32.265,0,0,1-8.1,1.04h-13.28C890.771,514.041,893.161,510.921,895.358,508.441Zm61.79,61.841,6.91,6.64a34.451,34.451,0,0,1,4.305-2.64c9.684-4.56,22.929-13.44,30.861-21.68l-5.551-10.72c-6.2,7.04-14.016,12.8-20.453,15.28l6.937-39.361a53.374,53.374,0,0,1,1.965-7.52h-14.4a41.384,41.384,0,0,1-.591,7.44l-8.093,45.921A33.832,33.832,0,0,1,957.148,570.282Zm-37-1.6,10.458,7.84A61.249,61.249,0,0,0,949.073,553c3.5-8.08,6.69-24.8,8.425-34.641a68.948,68.948,0,0,1,2.064-8.08H945.321a30.586,30.586,0,0,1-.572,8.24c-1.762,10-4.436,24.721-7.833,31.281C933.723,556.122,928.317,563.642,920.149,568.682Zm161.221-46.8-8.2-7.92a33.445,33.445,0,0,1-8.98,1.04h-42.48a68.125,68.125,0,0,1-9.69-.88l-2.4,13.6a95.394,95.394,0,0,1,9.97-.72h39.6a106.17,106.17,0,0,1-21.27,20.4c-3.99-4.16-7.98-7.84-10.89-10.4l-11.71,8.32c4.41,3.6,10.72,10.48,14.54,15.12a160.945,160.945,0,0,1,12.53,17.841l13.05-9.121c-2.47-3.68-5.94-8.48-9.5-12.8a179.941,179.941,0,0,0,31.64-30.641C1078.49,524.6,1079.83,523.4,1081.37,521.881Zm9.84,11.84L1088.79,549c2.99-.24,8.43-0.48,12.53-0.48h38.24c2.95,0,6.92.4,8.78,0.48l2.42-15.281c-2.11.16-5.7,0.561-8.94,0.561h-38.24C1100.05,534.282,1094.05,533.961,1091.21,533.721ZM1207.45,509l-14.44-2.96a42,42,0,0,1-3.54,9.2,68.511,68.511,0,0,1-6.63,10.8c-4.1,5.12-10.07,11.761-16.51,16.081l10.86,7.36a91.368,91.368,0,0,0,15.66-16.641h14.88c-3.96,14.721-11.3,24.161-21.13,30.881a40.243,40.243,0,0,1-9,4.8l11.5,8.72c16.52-9.28,27.03-24,32.15-44.4h9.92c1.84,0,5.52,0,8.74.32l2.33-13.2a63.116,63.116,0,0,1-8.92.64h-32.64c0.94-1.68,1.85-3.2,2.57-4.56C1204.28,514.281,1206.03,511.161,1207.45,509Zm60.86,0.56-2.19,12.4c2.67-.16,6.54-0.32,9.34-0.32h32c3.04,0,6.29.16,9.22,0.32l2.19-12.4a74.952,74.952,0,0,1-9.39.64h-32A69.81,69.81,0,0,1,1268.31,509.561Zm-12.84,20.64-2.23,12.641c2.27-.16,5.82-0.32,8.14-0.32h20.88a39.856,39.856,0,0,1-8.01,16.4,42.614,42.614,0,0,1-16.11,11.04l9.93,8.161c7.93-3.681,15.31-10.161,19.03-15.841a60.174,60.174,0,0,0,8.76-19.76h17.92c2.4,0,5.75.08,7.88,0.24l2.21-12.561a60.5,60.5,0,0,1-8.02.56h-52.4A66.016,66.016,0,0,1,1255.47,530.2Zm79.52,17.921,3.68,11.36a202.588,202.588,0,0,0,23.36-8.64l-3.38,19.2c-0.54,3.04-1.62,7.841-2.17,9.6h14.4c-0.25-1.76.52-6.561,1.05-9.6l4.72-26.8c7.88-4.72,15.89-10.241,20.37-14.321l-7.94-9.44c-5.09,5.28-14.8,12.72-23.57,17.521A124.11,124.11,0,0,1,1334.99,548.122Zm91.27-38.081-10.93,9.84a128.032,128.032,0,0,1,16.99,17.521l11.71-10.161C1440.14,522.121,1431.12,513.8,1426.26,510.041Zm-21.2,53.121,5.99,12.8a100.848,100.848,0,0,0,30.5-10.56c14.74-7.84,28.06-18.96,36.46-30.32L1472.9,521.4c-7.34,11.28-20.33,23.681-36.2,32A95.846,95.846,0,0,1,1405.06,563.162Zm149.82-57.441-8.05,3.04a64.671,64.671,0,0,1,3.67,9.6,32.946,32.946,0,0,1-7.52.88H1530.1c1.57-2.08,4.06-5.36,6.36-7.92l-13.35-4.64a52.141,52.141,0,0,1-5.91,9.52,94.138,94.138,0,0,1-29.3,25.041l9.46,8.08a128.9,128.9,0,0,0,23.53-19.121h19.92c-1.96,5.2-8.06,14.4-14.09,20-8.14,7.6-17.65,14.4-35.87,19.68l9.72,10.241c16.13-6.161,27.1-13.521,36.54-23.041a105.812,105.812,0,0,0,18.47-26.241,44.579,44.579,0,0,1,4.27-6.56l-7.27-5.04,6.61-2.56A106.391,106.391,0,0,0,1554.88,505.721Zm10.52-3.84-8.06,3.04a71.856,71.856,0,0,1,4.38,11.04l8.08-3.2A93.317,93.317,0,0,0,1565.4,501.881Zm49.09,53.884c2.12-11.989-4.79-21.447-18.43-21.447-14.24,0-27.15,10.833-29.39,23.537-1.64,9.293,2.23,16,8.34,16,5.99,0,11.92-6.819,17.18-17.927a127.665,127.665,0,0,0,5.93-14.9c7.2,1.265,10.33,6.929,8.99,14.518-1.42,8.029-7.81,13.088-15.14,14.738a46.016,46.016,0,0,1-5.27.88l2.97,6.544C1603.91,575.562,1612.45,567.368,1614.49,555.765Zm-40.66,1.375c1.07-6.05,7.38-14.078,16.78-15.948a95.977,95.977,0,0,1-5.26,13.308c-3.56,7.424-6.32,10.889-8.63,10.889C1574.58,565.389,1572.85,562.694,1573.83,557.14ZM711.685,625.481h-30.56l0.338-1.92h30.561Zm-1.55,8.8H679.574l0.352-2h30.561Zm14.852-18H671.626l-4.455,25.28h53.361Zm-15,46.961a41.476,41.476,0,0,1-4.667,5.6,23.288,23.288,0,0,1-2.933-5.6h7.6ZM668.4,675l0.451-2.56h8.241l-0.367,2.08Zm2.214-12.56h8.24l-0.381,2.16h-8.24Zm9.96-9.76-0.338,1.92h-8.24l0.338-1.92h8.24ZM718.3,654.2l-1.976.32H692.807l-1.537,8.72h7.441l-6.377,1.68a40.1,40.1,0,0,0,4.619,10.56,46.915,46.915,0,0,1-10.14,4.88l4.878-27.68h36.241l1.608-9.121H657.458l-1.607,9.121h5.92l-4.033,22.88c-2.428.16-4.682,0.24-6.7,0.32l-1.028,9.92c7.058-.56,16.051-1.2,25.044-1.84l-1.015,5.761h11.12l1.284-7.281a33.3,33.3,0,0,1,3.488,7.441A66.052,66.052,0,0,0,703.548,683a36.415,36.415,0,0,0,12.75,6.641,51.01,51.01,0,0,1,8.394-9.041,37.688,37.688,0,0,1-12.152-5.04,61.984,61.984,0,0,0,12.5-18.72Zm37.453,11.04,0.635-3.6h11.04l-0.634,3.6H755.757Zm13.748-15.36-0.593,3.36h-11.04l0.592-3.36h11.041Zm12.906-9.681h-33.2l-8.643,49.042h10.961l2.749-15.6h11.04l-0.888,5.04a1.249,1.249,0,0,1-1.492,1.2,57.959,57.959,0,0,1-6.306-.08,33.762,33.762,0,0,1,1.88,9.761c4.72,0,8.429-.16,11.685-1.84,3.242-1.6,4.587-4.241,5.4-8.881Zm14.578,37.121c-0.183,1.04-.639,1.36-1.919,1.36-1.294.08-5.455,0.08-9.012-.16a36.143,36.143,0,0,1,2.148,10.961c5.666,0.08,10.2-.24,13.953-2,3.83-1.76,5.3-4.64,6.242-10L815.183,639h-11.44Zm1.107-36.241h-10.64l-5.781,32.8h10.64Zm8.406-15.92c2.183-2.4,4.5-5.12,6.756-7.92l-12.072-3.68a84.275,84.275,0,0,1-8.044,11.6H772.021l4.668-1.52c-0.744-3.04-3.159-7.04-5.438-10l-11.8,3.84a34.7,34.7,0,0,1,3.927,7.68h-15.52l-1.847,10.48h73.521l1.847-10.48H806.5Zm71.058,15.92h18.4l-0.465,2.64H877.1Zm1.9-10.8h18.4l-0.466,2.64H879Zm-28.251,33.2,1.156-6.56,2.522-.24a37,37,0,0,1,.2,4.32l7.59-3.12-1.509,8.56h5.84a36.1,36.1,0,0,1-6.567,7.76,53.2,53.2,0,0,0-1.382-13.04Zm-2.5-15.76c1.172-1.2,2.357-2.48,3.543-3.761,0.362,1.121.645,2.241,0.994,3.441Zm50.506,5.76a81.345,81.345,0,0,1-7.147,6.96,42.691,42.691,0,0,1-1.54-7.6l0.056-.32H904.9l5.471-31.041h-15.2c1.539-1.92,3.091-3.92,4.592-6.08l-12.956-1.84a72.406,72.406,0,0,1-3.956,7.92h-12.24l-5.471,31.041h15.121l-1.072,6.08-4.236-1.84-1.722.24h-8.8c-0.128-4.72-1.768-11.76-3.849-17.2l-6.959,2.72c4.46-4.88,8.976-10.08,12.928-14.8l-8.613-4.24c-2.408,3.68-5.476,7.92-8.689,12.08-0.367-.64-0.734-1.28-1.182-1.92,3.59-4.48,7.97-10.72,11.931-16.4l-9.394-3.44a130.951,130.951,0,0,1-7.461,13.28l-1.2-1.36-7,7.92a54.576,54.576,0,0,1,6.789,10.961c-1.186,1.28-2.291,2.56-3.383,3.76l-6.057.32-0.548,9.92,10.556-.88L841.376,663l-8.692-1.52c-1.651,6.64-3.96,13.84-6.857,18.48a46.149,46.149,0,0,1,7.615,4,87.229,87.229,0,0,0,7.511-18.56l-4.286,24.321h9.92l4.314-24.481a50.985,50.985,0,0,1,.592,12.08l8.277-2.48a36.768,36.768,0,0,1-5.985,4,31.35,31.35,0,0,1,5.766,7.68c7.134-4.16,13.589-11.28,18.443-21.12l-2.383,13.52c-0.141.8-.423,1.04-1.383,1.04-0.88,0-3.68,0-5.986-.08a36.533,36.533,0,0,1,.986,9.841c4.8,0,8.428-.16,11.59-1.76,3.148-1.521,4.267-4.241,5.085-8.881l0.945-5.36c2.138,5.12,5.24,9.76,9.838,12.72a59.051,59.051,0,0,1,8.53-9.36,23.07,23.07,0,0,1-9.466-8.48c3.543-2.4,7.491-5.28,11.585-8.08Zm60.132-28.4-2.105,12.4a224.821,224.821,0,0,0,35.2,0l2.2-12.48C985.513,625.961,969.6,626.361,959.347,625.081Zm2.065,35.041-10.871-.96a52.9,52.9,0,0,0-3.371,10.96c-1.509,8.56,4.535,13.76,18.535,13.76a120.45,120.45,0,0,0,21.308-1.52l2.073-13.12a97.172,97.172,0,0,1-20.542,2.16c-6.56,0-9.68-1.36-9.06-4.88A31.072,31.072,0,0,1,961.412,660.122ZM949.567,620.2l-13.323-1.12c-0.615,3.04-1.81,6.64-2.553,9.04-1.843,5.92-6.518,19.281-8.675,31.521-1.917,10.88-2.094,20.96-1.439,26.32l11.328-.72c0.145-1.28.4-2.72,0.554-3.6a30.744,30.744,0,0,1,1.157-3.84c1.669-4.48,5.7-13.28,9.383-20.56l-5.022-4.64c-1.449,2.32-2.691,3.92-4.206,6.16a15.118,15.118,0,0,1,.245-1.84c1.311-7.44,7.26-24.4,8.873-28.561C946.463,626.921,948.523,622.041,949.567,620.2Zm98.183,10c-0.82-2.16-1.72-4.32-2.58-6.24l-8.78,4.4h-5.04l2.57-14.56h-10.64l-2.57,14.56h-7.84L1011,639h7.84l-2.02,11.441c-3.48,1.12-6.69,2.08-9.37,2.8l0.85,11.04,6.49-2.32L1012,677.8a1.249,1.249,0,0,1-1.51,1.28,55.179,55.179,0,0,1-6.14-.08,37.36,37.36,0,0,1,.97,10.8c5.28,0,9.04-.4,12.08-2.241,3.03-1.76,4.35-4.72,5.24-9.76l3.51-19.92c2.73-.96,5.47-2,8.12-2.96l-0.37-10.16-5.79,2,1.37-7.761h6l1.32-7.52a97.832,97.832,0,0,1,3.9,13.281l4.96-2.721-1.87,10.641-0.3-1.04c-5.82,3.52-11.71,6.96-15.58,8.96l4.12,9.76c2.57-1.84,5.38-3.76,8.14-5.76-3.01,6.64-7.87,12.4-16.54,16.64a34.23,34.23,0,0,1,6.81,8.161c17.08-8.881,21.69-23.681,24.52-39.761l6.15-34.881h-10.64Zm17.92,48.561c-1.36,0-1.42-.56-0.71-4.56l2.7-15.36a65.275,65.275,0,0,1,7.12,10.88l8.78-8c-2.18-4-6.93-9.76-11.22-14l-3.2,2.72,1.48-8.4,4.7,2.881c3.54-4.241,7.99-10.881,12.48-16.8l-9.39-5.28a99.715,99.715,0,0,1-6.52,12l3.54-20.08h-10.96l-10.46,59.361c-2.05,11.6-.4,14.961,7.68,14.961h6.24c6.8,0,10.31-4.481,13.33-15.681a23.484,23.484,0,0,1-8.89-4.48c-1.58,7.6-2.3,9.84-3.66,9.84h-3.04Zm112.9-50.561c-0.46-3.76-2.67-9.36-4.73-13.6l-9.59,4.48a54.414,54.414,0,0,1,4.07,14.16Zm-47.86-1.28a71.3,71.3,0,0,0-1.74-13.28l-9.91,2.24a77.853,77.853,0,0,1,1.11,13.68Zm-13.43,1.76a45.85,45.85,0,0,0-2.87-13.2l-9.89,2.96a47.373,47.373,0,0,1,2.17,13.6Zm-6.39,23.121h5.04l-0.54,3.04h-5.04Zm1.91-10.881h5.04l-0.53,3.04h-5.04Zm18.91,3.04h-4.72l0.53-3.04h4.72Zm-1.92,10.881h-4.72l0.54-3.04h4.72Zm8.03,22.08,1.79-10.16h-15.92l0.62-3.52h13.84l5.41-30.721h-4.48c3.35-4,7.66-9.84,11.62-15.52l-11.46-3.04a102.924,102.924,0,0,1-9.46,16.4l6.5,2.16h-31.36l-5.41,30.721h13.68l-0.62,3.52h-16.56l-1.79,10.16h16.56l-2.24,12.721h11.12l2.24-12.721h15.92Zm28.31-32.16a91.011,91.011,0,0,1-7.19,11.76c0.19-3.36.44-7.04,0.81-10.96Zm0.08,0,10.38-1.281,0.69-10.72-16.34,1.92c0.83-6.48,1.81-13.44,3.08-20.64h-10.96c-1.22,7.84-2.26,15.12-3.06,21.92l-6.45.72-0.64,10.881,5.89-.72a154.8,154.8,0,0,0-.8,22.24,65.858,65.858,0,0,1-19.45,12.8,31.114,31.114,0,0,1,6.97,8.081,72.067,72.067,0,0,0,14.16-9.521c1.65,5.6,4.64,8.641,9.17,8.8,3.41,0.16,8.56-2.721,13.36-16.8-1.58-1.04-5.64-4.32-7.04-6.8-1.46,6.48-2.68,9.76-3.8,9.76-0.95-.08-1.63-1.68-2.11-4.4a98.575,98.575,0,0,0,14.73-21.36Zm22.25,2.635-0.62,7.534c6.62-1.375,18.06-2.584,23.32-3.134a27.377,27.377,0,0,0-11.19,16.992c-2.11,11.934,7.7,18.093,19.11,18.863l3.91-7.534c-9.26-.5-17.15-3.74-15.55-12.813,1.15-6.545,7.41-13.639,14.37-15.4,3.04-.715,7.77-0.715,10.75-0.77l1.19-7.039c-3.93.165-9.99,0.5-15.74,0.99-10.21.824-19.43,1.649-24.11,2.034C1192.83,647.232,1190.67,647.342,1188.46,647.4Zm35.29,9.129-4.37,1.705a34.727,34.727,0,0,1,2.94,7.644l4.51-1.87A56.5,56.5,0,0,0,1223.75,656.526Zm6.6-2.53-4.34,1.87a39.167,39.167,0,0,1,3.2,7.424l4.47-1.98A65.816,65.816,0,0,0,1230.35,654Zm16.87,3.19-0.76,6.489a204.3,204.3,0,0,0,23.91.055,54.563,54.563,0,0,0,2.07,5.719c-1.62-.165-4.54-0.44-6.81-0.66l-1.47,5.225c3.93,0.44,9.75,1.155,12.72,1.759l4.25-5.059a12.808,12.808,0,0,1-1.98-2.8,41.108,41.108,0,0,1-2-4.895,81.3,81.3,0,0,0,9.1-1.705l0.05-6.489a78.917,78.917,0,0,1-10.9,2.2c-0.17-.88-0.35-1.7-0.49-2.475-0.13-.825-0.25-1.7-0.37-2.584a89.382,89.382,0,0,0,10.48-2.035l0.23-6.324a70.26,70.26,0,0,1-11.25,2.364q-0.075-2.8.03-5.774l-7.52.825c0.33,1.925.56,3.685,0.8,5.444a111.633,111.633,0,0,1-17.06-.824l-0.73,6.324a126.781,126.781,0,0,0,18.44.5c0.17,0.934.31,1.979,0.53,3.244,0.11,0.605.21,1.265,0.37,1.925A139.483,139.483,0,0,1,1247.22,657.186Zm8.31,12.758-6.59-1.32c-1.73,2.64-3.42,5.335-3.93,8.854-1.28,7.864,4.97,11.109,15.97,11.109a88.072,88.072,0,0,0,13.55-1.045l1.62-6.984a75.971,75.971,0,0,1-14.02,1.21c-7.26,0-10.82-1.65-10.1-5.72A12.642,12.642,0,0,1,1255.53,669.944Zm54.71,8.689a3.728,3.728,0,0,1,3.87-2.64c2.97,0,4.6,2.31,4.3,5.885a29.605,29.605,0,0,1-3.22.165C1311.89,682.043,1309.88,680.668,1310.24,678.633Zm-3.1-35.415-1.05,7.149c1.3-.165,3.09-0.33,4.59-0.44,2.95-.165,10.59-0.5,13.41-0.55-3.11,2.365-9.65,6.984-13.18,9.514-3.72,2.694-11.36,8.3-15.82,11.438l4.09,5.17c7.07-6.71,13.36-11.164,21.77-11.164,6.49,0,10.85,3.355,9.98,8.3a9.988,9.988,0,0,1-5.89,7.479c0.15-5.224-3.23-9.4-10.05-9.4-5.83,0-10.57,4.125-11.36,8.579-0.97,5.5,4.18,9.019,11.83,9.019,13.3,0,21.12-6.874,22.65-15.563,1.42-8.029-4.65-13.858-14-13.858a22.766,22.766,0,0,0-5.33.605c3.95-2.75,10.58-7.589,13.92-9.679,1.43-.935,2.88-1.705,4.29-2.53l-2.71-4.894A25.946,25.946,0,0,1,1330,643c-3.19.275-14.99,0.5-17.91,0.5A36.965,36.965,0,0,1,1307.14,643.218Z" transform="translate(-650 -398.031)"/>
</svg>
