<svg xmlns="http://www.w3.org/2000/svg" width="643.844" height="229.438" viewBox="0 0 643.844 229.438">
  <defs>
    <style>
      .cls-1 {
        fill: #323c55;
        fill-rule: evenodd;
      }
    </style>
  </defs>
  <path id="フルリモートで_デジタルマーケティングの_最前線に挑戦できる" data-name="フルリモートで デジタルマーケティングの 最前線に挑戦できる" class="cls-1" d="M160.974,372.5l-5.852-4.234a23.151,23.151,0,0,1-5.147.5H125.723c-1.814,0-5.395-.275-7.061-0.5l-1.66,9.4c1.449-.11,4.5-0.275,7.2-0.275h24.2a38.082,38.082,0,0,1-8.552,14.188c-5.3,5.389-12.364,10.228-23.854,12.7l5.851,7.974a57.135,57.135,0,0,0,25.11-15.453c5.855-6.379,9.584-14.738,11.816-19.907A32.893,32.893,0,0,1,160.974,372.5Zm22.891,35.361,4.748,4.564a23.756,23.756,0,0,1,2.96-1.815c6.658-3.134,15.764-9.239,21.218-14.9l-3.814-7.369c-4.264,4.839-9.637,8.8-14.062,10.5l4.775-27.057a36.612,36.612,0,0,1,1.352-5.169h-9.9a28.435,28.435,0,0,1-.408,5.114l-5.57,31.566A23.33,23.33,0,0,1,183.865,407.858Zm-25.433-1.1,7.188,5.389a42.117,42.117,0,0,0,12.7-16.168c2.41-5.554,4.6-17.048,5.8-23.812a47.6,47.6,0,0,1,1.42-5.554h-9.789a21.016,21.016,0,0,1-.4,5.664c-1.213,6.874-3.053,16.993-5.389,21.5A32.419,32.419,0,0,1,158.432,406.758ZM262.3,365.9H252.236a44.1,44.1,0,0,1-.663,5.939l-2.009,11.384c-1.34,7.589-2.8,11.493-7.172,15.4-3.9,3.409-8.55,5.444-14.492,6.709l5.683,7.369a42.862,42.862,0,0,0,14.871-7.919c4.956-4.4,8.511-9.9,10.462-20.952l2.115-11.989C261.458,369.418,261.9,367.548,262.3,365.9Zm-25.549.495h-9.623a43.51,43.51,0,0,1-.547,4.344l-3.29,18.643c-0.3,1.7-.938,4.069-1.187,5.169h9.679c0.142-1.429.44-3.739,0.682-5.114l3.3-18.7C236.113,368.758,236.4,367.768,236.75,366.393Zm41.024,1.54-1.456,8.249c1.725-.11,3.549-0.165,5.584-0.165h5.334l-1.427,8.084H277.78c-1.814,0-4.855-.22-6.43-0.33l-1.534,8.689c1.779-.11,4.888-0.275,6.538-0.275h8.029l-1.689,9.568c-1.087,6.16.618,9.9,11.672,9.9,5.114,0,11.907-.165,15.126-0.33l2.206-9.074c-4.312.44-9.43,0.77-14.159,0.77-4.069,0-5.748-.77-5.195-3.9l1.223-6.929H309.3a49.825,49.825,0,0,1,5.58.165l1.449-8.524c-1.559.11-4.668,0.275-5.823,0.275H294.993l1.427-8.084h12.153c2.035,0,3.665.11,5.14,0.165l1.456-8.249a47.135,47.135,0,0,1-5.218.275H283.28C281.245,368.208,279.459,368.043,277.774,367.933Zm50.761,14.793-1.667,10.5c2.056-.164,5.8-0.329,8.616-0.329h26.284c2.03,0,4.758.274,6.036,0.329l1.667-10.5c-1.452.11-3.922,0.385-6.149,0.385H337.038C334.612,383.111,330.489,382.891,328.535,382.726Zm55.127,20.9a67.307,67.307,0,0,1-2.125,8.3h10.448c0.162-2.475.6-6.819,0.861-8.3l2.494-14.133a141.538,141.538,0,0,1,17.53,7.864l5.434-9.294a152.532,152.532,0,0,0-21.246-8.3l1.329-7.534a71.21,71.21,0,0,1,1.812-7.149H389.805a38.267,38.267,0,0,1-.6,7.149Zm43.461-21.758-0.468,5.755c5.058-1.05,13.791-1.974,17.813-2.394a20.887,20.887,0,0,0-8.546,12.98c-1.606,9.116,5.883,13.821,14.6,14.409l2.988-5.755c-7.074-.378-13.107-2.857-11.886-9.788,0.881-5,5.658-10.418,10.978-11.762a45.327,45.327,0,0,1,8.211-.588l0.9-5.377c-3,.126-7.628.378-12.021,0.756-7.8.63-14.841,1.26-18.421,1.554C430.464,381.739,428.811,381.823,427.123,381.865Zm26.959,6.973-3.338,1.3a26.5,26.5,0,0,1,2.248,5.839l3.444-1.429A42.473,42.473,0,0,0,454.082,388.838Zm5.045-1.932-3.318,1.428a29.842,29.842,0,0,1,2.445,5.671l3.417-1.512A50.328,50.328,0,0,0,459.127,386.906Zm-357.961,84.17-1.533,8.689c1.559-.11,4-0.22,5.593-0.22h14.353a27.415,27.415,0,0,1-5.509,11.273A29.316,29.316,0,0,1,103,498.407l6.819,5.61A33.656,33.656,0,0,0,122.9,493.128a41.4,41.4,0,0,0,6.027-13.583h12.318c1.65,0,3.95.055,5.415,0.165l1.524-8.634a41.57,41.57,0,0,1-5.512.385h-36.02A45.431,45.431,0,0,1,101.166,471.076Zm43.085-17.6-5.538,2.09c0.2,0.44.44,0.935,0.628,1.43a49.472,49.472,0,0,1-5.668.33H116.241a47.948,47.948,0,0,1-6.3-.44l-1.5,8.524c1.834-.11,4.493-0.22,6.418-0.22h17.433c2.089,0,4.325.11,6.34,0.22l1.262-7.149c0.634,1.705,1.248,3.519,1.711,4.949l5.612-2.2A72.809,72.809,0,0,0,144.251,453.478Zm7.23-2.639-5.538,2.09a49.873,49.873,0,0,1,3,7.589l5.558-2.2A63.751,63.751,0,0,0,151.481,450.839Zm44.552,5.389-5.9,2.255a37.441,37.441,0,0,1,3.261,8.634l6.091-2.42A68.514,68.514,0,0,0,196.033,456.228Zm8.285-2.695-6.017,2.31a39.366,39.366,0,0,1,3.649,8.3L208,461.672A59.189,59.189,0,0,0,204.318,453.533Zm-32.158,1.485-6.14,7.369c3.471,2.145,8.449,5.72,11.361,7.919l6.25-7.369C180.875,460.792,175.641,457.108,172.16,455.018ZM154.025,493.9l3.452,8.8a79.129,79.129,0,0,0,19.616-6.764,87.168,87.168,0,0,0,25.775-19.853l-3.5-9.128c-5.742,7.919-15.029,15.673-25.41,20.9A69.436,69.436,0,0,1,154.025,493.9Zm7.324-26.231-6.14,7.369a124.667,124.667,0,0,1,11.4,8.029l6.214-7.479A117.326,117.326,0,0,0,161.349,467.667ZM243.7,455.348l-9.1-2.969a35.722,35.722,0,0,1-4.069,6.544,67.533,67.533,0,0,1-20.567,17.762l6.223,5.555a89.174,89.174,0,0,0,16.948-14.079h14.133A46.382,46.382,0,0,1,240.2,478.61c-2.821-2.09-5.661-4.069-7.929-5.554l-7.016,6.1c2.193,1.595,5.04,3.85,7.912,6.269A57.4,57.4,0,0,1,211.714,496.7l6.57,6.709a65.286,65.286,0,0,0,21.121-12.484c1.934,1.815,3.613,3.52,4.81,4.84l7.718-7.589c-1.326-1.21-3.189-2.8-5.253-4.51A81.262,81.262,0,0,0,257.2,468.6a36.081,36.081,0,0,1,2.941-4.509l-5.972-4.179a22.172,22.172,0,0,1-5.57.715h-9.129C240.55,459.2,242.193,457.053,243.7,455.348Zm40.305,42.51,4.749,4.564a23.68,23.68,0,0,1,2.96-1.815c6.657-3.134,15.763-9.239,21.217-14.9l-3.814-7.369c-4.263,4.839-9.636,8.8-14.062,10.5l4.775-27.057a36.612,36.612,0,0,1,1.352-5.169h-9.9a28.486,28.486,0,0,1-.407,5.114l-5.571,31.566A23.192,23.192,0,0,1,284.009,497.858Zm-25.432-1.1,7.187,5.389a42.108,42.108,0,0,0,12.7-16.168c2.41-5.554,4.6-17.048,5.8-23.812a47.6,47.6,0,0,1,1.42-5.554h-9.789a21.049,21.049,0,0,1-.394,5.664c-1.213,6.874-3.054,16.993-5.389,21.5A32.434,32.434,0,0,1,258.577,496.758ZM367.3,464.587l-5.639-5.444a23.011,23.011,0,0,1-6.175.715h-29.2a46.751,46.751,0,0,1-6.657-.605l-1.65,9.348a65.454,65.454,0,0,1,6.851-.494h27.222a73.18,73.18,0,0,1-14.628,14.023c-2.74-2.86-5.483-5.39-7.483-7.149l-8.048,5.719a88.336,88.336,0,0,1,9.989,10.393,110.9,110.9,0,0,1,8.615,12.264l8.97-6.269c-1.7-2.53-4.086-5.83-6.531-8.8a123.685,123.685,0,0,0,21.754-21.062C365.315,466.457,366.231,465.632,367.3,464.587Zm4.559,8.139-1.667,10.5c2.055-.164,5.794-0.329,8.616-0.329h26.284c2.029,0,4.758.274,6.036,0.329l1.667-10.5c-1.453.11-3.922,0.385-6.15,0.385H380.356C377.931,473.111,373.808,472.891,371.854,472.726Zm77.883-16.993-9.925-2.035a28.815,28.815,0,0,1-2.436,6.325,47.384,47.384,0,0,1-4.554,7.424c-2.821,3.519-6.926,8.084-11.355,11.053l7.466,5.059A62.878,62.878,0,0,0,439.7,472.121h10.228c-2.72,10.119-7.77,16.608-14.524,21.227a27.811,27.811,0,0,1-6.192,3.3l7.906,5.994c11.355-6.379,18.585-16.5,22.1-30.521h6.819c1.265,0,3.8,0,6.011.22l1.6-9.074a43.281,43.281,0,0,1-6.127.44H445.085c0.644-1.155,1.268-2.2,1.763-3.134C447.556,459.363,448.76,457.218,449.737,455.733Zm39.627,0.385-1.5,8.524c1.834-.11,4.493-0.22,6.418-0.22h22c2.09,0,4.325.11,6.34,0.22l1.5-8.524a51.562,51.562,0,0,1-6.457.44h-22A47.96,47.96,0,0,1,489.364,456.118Zm-8.828,14.188L479,479c1.559-.11,4-0.22,5.593-0.22h14.353a27.419,27.419,0,0,1-5.509,11.274,29.339,29.339,0,0,1-11.073,7.589l6.819,5.609a33.656,33.656,0,0,0,13.085-10.889,41.374,41.374,0,0,0,6.027-13.583h12.318c1.65,0,3.95.055,5.415,0.165l1.524-8.634a41.57,41.57,0,0,1-5.512.385h-36.02A45.431,45.431,0,0,1,480.536,470.306Zm52.485,12.319,2.527,7.809a139.932,139.932,0,0,0,16.061-5.94l-2.329,13.2c-0.369,2.089-1.116,5.389-1.5,6.6h9.9a33.044,33.044,0,0,1,.725-6.6l3.251-18.423a98.722,98.722,0,0,0,14-9.844l-5.454-6.489A76.664,76.664,0,0,1,554,474.981,85.4,85.4,0,0,1,533.021,482.625Zm60.73-26.177-7.518,6.764a88.131,88.131,0,0,1,11.678,12.044l8.051-6.985C603.284,464.752,597.089,459.033,593.751,456.448Zm-14.583,36.515,4.111,8.8a69.3,69.3,0,0,0,20.969-7.259c10.135-5.389,19.293-13.033,25.07-20.842l-3.51-9.4c-5.053,7.754-13.981,16.278-24.889,22A65.9,65.9,0,0,1,579.168,492.963Zm100.76-39.485-5.538,2.09a44.267,44.267,0,0,1,2.52,6.6,22.617,22.617,0,0,1-5.166.605H662.89c1.077-1.43,2.795-3.684,4.37-5.444l-9.171-3.19a35.654,35.654,0,0,1-4.069,6.544A64.668,64.668,0,0,1,633.88,477.9l6.5,5.554a88.414,88.414,0,0,0,16.178-13.143h13.693c-1.346,3.575-5.541,9.9-9.685,13.748-5.6,5.225-12.141,9.9-24.659,13.529l6.676,7.039c11.086-4.235,18.633-9.294,25.122-15.838a72.664,72.664,0,0,0,12.7-18.038,30.754,30.754,0,0,1,2.941-4.509l-5-3.465,4.545-1.76A73.036,73.036,0,0,0,679.928,453.478Zm7.23-2.639-5.538,2.09a49.873,49.873,0,0,1,3,7.589l5.557-2.2A63.737,63.737,0,0,0,687.158,450.839Zm35.9,35.057c1.613-9.158-3.667-16.383-14.085-16.383-10.88,0-20.739,8.275-22.449,17.979-1.251,7.1,1.711,12.224,6.374,12.224,4.579,0,9.109-5.209,13.124-13.694a98.5,98.5,0,0,0,4.526-11.384c5.5,0.966,7.889,5.293,6.868,11.09-1.08,6.133-5.962,10-11.561,11.258a35.249,35.249,0,0,1-4.025.672l2.27,5C714.977,501.018,721.5,494.759,723.061,485.9ZM692,486.946c0.814-4.621,5.633-10.754,12.816-12.182A73.049,73.049,0,0,1,700.8,484.93c-2.721,5.671-4.826,8.317-6.59,8.317C692.57,493.247,691.253,491.189,692,486.946ZM121.893,550.188H100.886l0.233-1.32h21.007Zm-1.068,6.049H99.818l0.243-1.375h21.007Zm10.213-12.374H94.358l-3.067,17.378h36.68Zm-10.316,32.281a28.551,28.551,0,0,1-3.209,3.85,16.029,16.029,0,0,1-2.016-3.85h5.225Zm-28.593,8.084,0.311-1.76H98.1l-0.252,1.43Zm1.524-8.634h5.664l-0.262,1.485H93.39Zm6.849-6.709-0.233,1.32H94.6l0.233-1.32H100.5Zm25.937,1.045-1.359.22H108.911l-1.057,5.994h5.114l-4.383,1.155a27.554,27.554,0,0,0,3.173,7.259,32.269,32.269,0,0,1-6.971,3.355l3.358-19.028h24.911l1.107-6.269H84.614l-1.106,6.269h4.069L84.8,584.613c-1.669.11-3.219,0.165-4.6,0.22l-0.709,6.819c4.852-.385,11.034-0.825,17.216-1.265l-0.7,3.96h7.644l0.884-5a22.9,22.9,0,0,1,2.4,5.115,45.439,45.439,0,0,0,9.358-4.73,25.015,25.015,0,0,0,8.763,4.565,35.061,35.061,0,0,1,5.771-6.214,25.907,25.907,0,0,1-8.352-3.465,42.631,42.631,0,0,0,8.6-12.868Zm23.454,7.589,0.436-2.475h7.589l-0.437,2.475h-7.588Zm9.452-10.559-0.408,2.31h-7.589l0.408-2.31h7.589Zm8.873-6.654H145.4l-5.949,33.711h7.534l1.893-10.724h7.589l-0.612,3.465a0.858,0.858,0,0,1-1.025.825,39.839,39.839,0,0,1-4.335-.055,23.237,23.237,0,0,1,1.291,6.709c3.244,0,5.793-.11,8.032-1.265,2.229-1.1,3.154-2.915,3.717-6.1Zm10.015,25.517a1.042,1.042,0,0,1-1.32.935c-0.889.055-3.749,0.055-6.194-.11a24.871,24.871,0,0,1,1.475,7.534c3.894,0.055,7.013-.165,9.591-1.375,2.633-1.21,3.642-3.19,4.293-6.874l4.668-26.452h-7.864ZM179,560.911h-7.314l-3.979,22.547h7.314Zm5.781-10.943c1.5-1.65,3.095-3.52,4.645-5.445l-8.3-2.529a58,58,0,0,1-5.531,7.974H161.078l3.209-1.045a21.537,21.537,0,0,0-3.737-6.874l-8.109,2.639a23.872,23.872,0,0,1,2.7,5.28H144.47l-1.271,7.2h50.538l1.271-7.2H184.78Zm46.508,10.943h12.649l-0.321,1.815H230.968Zm1.31-7.424h12.649l-0.321,1.815H232.278Zm-19.425,22.822,0.8-4.509,1.734-.165a25.367,25.367,0,0,1,.136,2.969l5.217-2.144-1.038,5.884h4.015a24.846,24.846,0,0,1-4.516,5.334,36.571,36.571,0,0,0-.948-8.964Zm-1.718-10.833c0.806-.825,1.621-1.705,2.436-2.585,0.249,0.77.443,1.54,0.683,2.365Zm34.717,3.959a55.824,55.824,0,0,1-4.914,4.784A29.319,29.319,0,0,1,240.2,569l0.039-.22h9.844l3.765-21.337H243.4c1.057-1.32,2.125-2.695,3.157-4.18l-8.906-1.264a49.964,49.964,0,0,1-2.72,5.444h-8.414l-3.765,21.337h10.393l-0.737,4.18L229.5,571.69l-1.184.165h-6.049a40.818,40.818,0,0,0-2.643-11.824l-4.784,1.87c3.066-3.355,6.172-6.929,8.889-10.174l-5.92-2.914c-1.656,2.529-3.765,5.444-5.974,8.3-0.253-.44-0.5-0.88-0.812-1.32,2.468-3.08,5.48-7.369,8.2-11.274l-6.457-2.364a90.055,90.055,0,0,1-5.13,9.128l-0.825-.934L202,555.8a37.568,37.568,0,0,1,4.665,7.534c-0.816.88-1.576,1.76-2.326,2.584l-4.164.22-0.378,6.82,7.256-.605-0.641,3.629-5.975-1.045c-1.135,4.565-2.723,9.514-4.716,12.7a31.64,31.64,0,0,1,5.234,2.749,59.937,59.937,0,0,0,5.166-12.758l-2.95,16.718h6.819l2.97-16.828a35.1,35.1,0,0,1,.4,8.3l5.69-1.7a25.246,25.246,0,0,1-4.115,2.75,21.536,21.536,0,0,1,3.963,5.279c4.9-2.86,9.342-7.754,12.681-14.518l-1.64,9.294a0.751,0.751,0,0,1-.951.715c-0.6,0-2.53,0-4.115-.055a25.1,25.1,0,0,1,.676,6.764c3.3,0,5.794-.11,7.967-1.21,2.164-1.045,2.934-2.915,3.5-6.1l0.65-3.685a18.55,18.55,0,0,0,6.761,8.744,40.644,40.644,0,0,1,5.865-6.434,15.859,15.859,0,0,1-6.5-5.829c2.436-1.65,5.15-3.63,7.964-5.555ZM285.2,549.913l-1.45,8.523a154.517,154.517,0,0,0,24.2,0l1.514-8.578A127.558,127.558,0,0,1,285.2,549.913ZM286.613,574l-7.472-.66a36.421,36.421,0,0,0-2.32,7.534c-1.038,5.885,3.116,9.459,12.739,9.459a82.8,82.8,0,0,0,14.648-1.045l1.426-9.018a66.848,66.848,0,0,1-14.12,1.484c-4.509,0-6.654-.935-6.227-3.354A21.351,21.351,0,0,1,286.613,574Zm-8.135-27.441-9.158-.77c-0.424,2.09-1.246,4.565-1.757,6.214-1.268,4.07-4.483,13.254-5.968,21.667a68.679,68.679,0,0,0-.993,18.093l7.786-.495c0.1-.88.275-1.87,0.382-2.475a21.049,21.049,0,0,1,.8-2.639c1.148-3.08,3.92-9.129,6.453-14.133l-3.452-3.19c-1,1.595-1.85,2.695-2.891,4.235a10.274,10.274,0,0,1,.168-1.265c0.9-5.115,4.994-16.773,6.1-19.633C276.343,551.177,277.759,547.823,278.478,546.558Zm65.209,6.874c-0.563-1.485-1.181-2.969-1.773-4.289l-6.033,3.024h-3.464l1.766-10.008h-7.314L325.1,552.167h-5.39l-1.29,7.314h5.389l-1.388,7.864c-2.39.77-4.6,1.43-6.444,1.925l0.586,7.589,4.461-1.6-1.922,10.889a0.857,0.857,0,0,1-1.035.88,38,38,0,0,1-4.225-.055,25.73,25.73,0,0,1,.67,7.424c3.629,0,6.208-.275,8.3-1.54,2.083-1.21,2.992-3.245,3.6-6.709l2.417-13.693c1.876-.66,3.762-1.375,5.583-2.035l-0.252-6.984-3.982,1.375,0.941-5.335h4.124l0.913-5.169a68.241,68.241,0,0,1,2.678,9.129l3.41-1.87-1.291,7.314-0.2-.715c-4,2.42-8.048,4.785-10.711,6.159l2.831,6.709c1.763-1.264,3.7-2.584,5.593-3.959A22.732,22.732,0,0,1,327.1,588.517a23.406,23.406,0,0,1,4.674,5.61c11.746-6.1,14.916-16.278,16.867-27.332l4.231-23.976H345.56ZM356,586.813c-0.935,0-.977-0.385-0.492-3.135l1.863-10.558a45.321,45.321,0,0,1,4.895,7.479l6.029-5.5a49.017,49.017,0,0,0-7.7-9.623l-2.2,1.869,1.019-5.774,3.225,1.98c2.44-2.915,5.5-7.479,8.583-11.549l-6.454-3.629a68.377,68.377,0,0,1-4.48,8.249l2.436-13.8h-7.534l-7.2,40.8c-1.407,7.974-.275,10.284,5.279,10.284h4.289c4.675,0,7.088-3.08,9.162-10.779a16.192,16.192,0,0,1-6.111-3.079c-1.087,5.224-1.579,6.764-2.514,6.764H356Zm75.278-34.756a35.25,35.25,0,0,0-3.245-9.348l-6.592,3.079a37.462,37.462,0,0,1,2.791,9.734Zm-32.9-.88a49.1,49.1,0,0,0-1.193-9.128l-6.816,1.539a53.211,53.211,0,0,1,.76,9.4Zm-9.232,1.21a31.518,31.518,0,0,0-1.973-9.074l-6.793,2.035a32.488,32.488,0,0,1,1.484,9.349Zm-4.4,15.893h3.464l-0.368,2.09h-3.465Zm1.32-7.479h3.464l-0.369,2.09H385.7Zm12.994,2.09h-3.245l0.369-2.09h3.245Zm-1.32,7.479H394.5l0.368-2.09h3.245Zm5.516,15.178,1.232-6.984H393.549l0.427-2.42h9.513l3.727-21.117h-3.08c2.3-2.75,5.263-6.764,7.987-10.669l-7.88-2.089a70.658,70.658,0,0,1-6.5,11.273l4.468,1.485H380.654l-3.726,21.117h9.4l-0.427,2.42H374.521l-1.232,6.984h11.383l-1.543,8.744h7.644l1.543-8.744H403.26Zm19.464-22.107a62.058,62.058,0,0,1-4.946,8.084c0.132-2.31.3-4.84,0.559-7.534Zm0.055,0,7.139-.88,0.476-7.369-11.232,1.32c0.566-4.455,1.246-9.239,2.119-14.188h-7.534c-0.841,5.389-1.559,10.393-2.109,15.068l-4.432.495-0.44,7.479,4.047-.5a105.671,105.671,0,0,0-.553,15.288,45.235,45.235,0,0,1-13.376,8.8,21.382,21.382,0,0,1,4.794,5.555,49.538,49.538,0,0,0,9.733-6.544c1.136,3.849,3.187,5.939,6.3,6.049,2.345,0.11,5.884-1.87,9.187-11.549a19.033,19.033,0,0,1-4.839-4.674c-1.006,4.454-1.844,6.709-2.614,6.709-0.65-.055-1.116-1.155-1.446-3.025a67.8,67.8,0,0,0,10.125-14.683Zm13.525-1.576-0.468,5.755c5.058-1.05,13.791-1.974,17.813-2.394a20.882,20.882,0,0,0-8.545,12.98c-1.606,9.116,5.882,13.821,14.6,14.409l2.988-5.755c-7.074-.378-13.107-2.857-11.886-9.788,0.881-5,5.658-10.418,10.978-11.762a45.327,45.327,0,0,1,8.211-.588l0.9-5.377c-3,.126-7.628.378-12.021,0.756-7.8.63-14.841,1.26-18.421,1.554C439.645,561.739,437.992,561.823,436.3,561.865Zm26.959,6.973-3.338,1.3a26.446,26.446,0,0,1,2.248,5.839l3.444-1.429A42.343,42.343,0,0,0,463.263,568.838Zm5.045-1.932-3.318,1.428a29.842,29.842,0,0,1,2.445,5.671l3.417-1.512A50.328,50.328,0,0,0,468.308,566.906Zm11.158,2.437-0.58,4.956a156.136,156.136,0,0,0,18.266.042,40.93,40.93,0,0,0,1.583,4.369c-1.238-.126-3.469-0.336-5.2-0.5l-1.123,3.991c3.007,0.336,7.448.882,9.719,1.344l3.243-3.865a9.946,9.946,0,0,1-1.513-2.142,31.014,31.014,0,0,1-1.526-3.739,62.055,62.055,0,0,0,6.951-1.3l0.033-4.957A60.43,60.43,0,0,1,501,569.217c-0.134-.673-0.275-1.3-0.382-1.891-0.1-.63-0.19-1.3-0.282-1.974a67.725,67.725,0,0,0,8-1.554l0.179-4.831a53.782,53.782,0,0,1-8.593,1.806q-0.065-2.142.021-4.411l-5.74.63c0.245,1.471.428,2.815,0.611,4.159a85.276,85.276,0,0,1-13.037-.63l-0.557,4.831a96.941,96.941,0,0,0,14.09.378c0.126,0.714.237,1.512,0.4,2.478,0.087,0.462.166,0.966,0.287,1.471A106.61,106.61,0,0,1,479.466,569.343Zm6.348,9.745-5.031-1.008a16.426,16.426,0,0,0-3,6.763c-0.974,6.007,3.8,8.486,12.2,8.486a67.242,67.242,0,0,0,10.349-.8l1.234-5.335a57.931,57.931,0,0,1-10.707.924c-5.545,0-8.263-1.26-7.716-4.369A9.636,9.636,0,0,1,485.814,579.088Zm40.1,6.637a2.853,2.853,0,0,1,2.959-2.016c2.269,0,3.512,1.764,3.283,4.5a22.541,22.541,0,0,1-2.459.126C527.182,588.33,525.645,587.28,525.919,585.725Zm-2.376-27.052-0.794,5.461c0.989-.126,2.355-0.252,3.5-0.336,2.249-.126,8.09-0.379,10.24-0.421-2.377,1.807-7.367,5.335-10.06,7.268-2.841,2.058-8.679,6.343-12.083,8.737l3.127,3.949c5.4-5.125,10.2-8.528,16.625-8.528,4.957,0,8.286,2.563,7.62,6.344a7.617,7.617,0,0,1-4.493,5.713c0.115-3.991-2.473-7.184-7.682-7.184-4.453,0-8.075,3.151-8.674,6.554-0.74,4.2,3.2,6.889,9.036,6.889,10.166,0,16.132-5.251,17.3-11.888,1.081-6.133-3.554-10.586-10.7-10.586a17.41,17.41,0,0,0-4.072.462c3.016-2.1,8.078-5.8,10.628-7.393,1.092-.715,2.2-1.3,3.281-1.933l-2.072-3.738a19.847,19.847,0,0,1-3.274.462c-2.432.21-11.451,0.378-13.677,0.378A28.332,28.332,0,0,1,523.543,558.673Z" transform="translate(-79.5 -365.062)"/>
</svg>
