<?xml version="1.0" encoding="UTF-8"?><svg id="_レイヤー_1" xmlns="http://www.w3.org/2000/svg" viewBox="0 0 368.42 63.13"><g><path d="M8,25.95H0V.72H8V9.73h10.38V.72h8V25.95h-8V15.64H8v10.31Z"/><path d="M29.16,13.77c.04-1.62,.58-3.64,2.88-5.12,1.33-.87,3.5-1.59,7.35-1.59,2.56,0,6.38,.25,8.51,1.62,2.56,1.66,2.92,3.97,2.92,6.02v7.89c0,.83-.04,1.59,.29,2.2,.25,.51,.58,.69,.87,.76v.4h-7.97l-.43-1.91h-.18c-.68,.9-1.59,1.62-2.92,2.09-1.26,.43-2.49,.5-3.89,.5-2.27,0-4.54-.18-6.06-1.23-1.01-.72-2.13-2.09-2.13-4.33,0-1.94,.87-3.17,1.77-3.89,1.69-1.37,4.25-1.48,6.45-1.66l3.03-.25c.69-.07,2.09-.22,2.74-.61,.68-.4,.79-1.01,.79-1.37,0-.33-.11-1.12-1.08-1.59-.47-.25-1.19-.39-2.27-.39-.9,0-1.84,.11-2.52,.61-.76,.54-.9,1.23-.87,1.84h-7.28Zm14.09,3.78c-.25,.22-.86,.69-2.7,.86l-1.19,.11c-1.12,.11-1.8,.18-2.34,.5-.54,.33-.87,.9-.87,1.59,0,.83,.54,1.26,.76,1.41,.54,.36,1.33,.43,2.05,.43,.97,0,2.2-.11,3.17-1.16,.69-.72,1.12-1.91,1.12-3.57v-.18Z"/><path d="M68.33,7.64h8.51l-8.47,7.32,8.76,10.99h-8.43l-5.08-7.14-1.98,1.73v5.4h-7.64V.72h7.64V14.02l6.7-6.38Z"/><path d="M93.59,23.79h-.18c-.65,.79-1.51,1.55-2.34,1.95-1.23,.61-2.74,.76-4.25,.76-1.95,0-4.79-.14-6.63-1.98-1.8-1.8-1.87-4.29-1.87-5.8V7.64h7.64v9.87c0,1.08,.11,2.38,.9,3.21,.69,.72,1.62,.8,2.38,.8,.9,0,1.8-.14,2.6-.97,1.19-1.26,1.23-3.25,1.23-4.33V7.64h7.64V25.95h-7.1v-2.16Z"/><path d="M110.6,9.4c.61-.61,1.55-1.3,2.88-1.77,.9-.33,2.16-.58,3.97-.58,1.44,0,3.71,.18,5.48,1.41,2.2,1.51,2.67,3.78,2.67,6.7v10.78h-7.64v-9.51c0-1.23-.07-2.67-.97-3.57-.68-.69-1.66-.83-2.41-.83-1.01,0-1.95,.25-2.67,1.01-.79,.8-1.3,2.13-1.3,3.82v9.08h-7.64V.72h7.64V9.4Z"/><path d="M149.03,9.4c2.05,1.51,3.5,3.86,3.5,7.39s-1.44,5.87-3.5,7.39c-2.34,1.73-5.91,2.41-9.05,2.41s-6.7-.69-9.05-2.41c-2.05-1.51-3.5-3.86-3.5-7.39s1.44-5.87,3.5-7.39c2.34-1.73,5.91-2.41,9.05-2.41s6.7,.69,9.05,2.41Zm-12.36,3.46c-1.15,1.15-1.3,2.81-1.3,3.93s.14,2.78,1.3,3.93c.79,.83,2.02,1.26,3.32,1.26s2.52-.43,3.32-1.26c1.15-1.15,1.3-2.81,1.3-3.93s-.14-2.78-1.3-3.93c-.79-.83-2.02-1.26-3.32-1.26s-2.52,.43-3.32,1.26Z"/><path d="M170.63,23.97c-.54,.72-1.26,1.37-2.34,1.84-1.37,.58-2.88,.69-4.54,.69-2.2,0-5.01-.14-7.25-2.49-2.12-2.2-2.49-5.19-2.49-7.53,0-1.98,.29-4.76,2.52-6.92,2.2-2.12,5.08-2.45,7.43-2.45,1.19,0,2.45,.04,3.89,.58,1.01,.36,1.8,.86,2.56,1.77V.72h7.64V25.95h-7.28v-1.98h-.14Zm-7.25-11.25c-.86,.79-1.44,2.27-1.44,4.07s.58,3.28,1.44,4.07c.9,.87,2.05,1.01,2.88,1.01s1.98-.14,2.88-1.01c.87-.79,1.44-2.27,1.44-4.07s-.58-3.28-1.44-4.07c-.9-.87-2.05-1.01-2.88-1.01s-1.98,.14-2.88,1.01Z"/><path d="M201.34,9.4c2.05,1.51,3.5,3.86,3.5,7.39s-1.44,5.87-3.5,7.39c-2.34,1.73-5.91,2.41-9.05,2.41s-6.7-.69-9.05-2.41c-2.05-1.51-3.5-3.86-3.5-7.39s1.44-5.87,3.5-7.39c2.34-1.73,5.91-2.41,9.05-2.41s6.7,.69,9.05,2.41Zm-12.36,3.46c-1.15,1.15-1.3,2.81-1.3,3.93s.14,2.78,1.3,3.93c.79,.83,2.02,1.26,3.32,1.26s2.52-.43,3.32-1.26c1.15-1.15,1.3-2.81,1.3-3.93s-.14-2.78-1.3-3.93c-.79-.83-2.02-1.26-3.32-1.26s-2.52,.43-3.32,1.26Z"/><path d="M229.16,.72c3.82,0,8.07,.22,11.46,3.5,2.88,2.81,3.42,6.42,3.42,9.01,0,4.9-1.91,7.75-3.42,9.23-3.42,3.28-8.4,3.5-11.64,3.5h-12.43V.72h12.61Zm-4.61,19.24h3.17c1.37,0,4-.07,5.62-1.41,1.23-1.01,2.13-2.95,2.13-5.3,0-2.13-.69-4.11-1.98-5.23-1.59-1.37-3.68-1.41-5.69-1.41h-3.24v13.33Z"/><path d="M263.4,.72h8.65l-10.56,16v9.23h-8v-9.23L242.96,.72h9.3l5.62,10.31,5.51-10.31Z"/><path d="M306.88,22.67c-3.46,3.46-8.4,4-11.75,4s-8.29-.54-11.75-4c-1.66-1.66-3.53-4.54-3.53-9.33s1.87-7.68,3.53-9.34c3.46-3.46,8.4-4,11.79-4s8.25,.54,11.71,4c1.66,1.66,3.53,4.54,3.53,9.34s-1.87,7.67-3.53,9.33Zm-16.43-15.06c-1.01,1.01-2.02,2.84-2.02,5.73s1.01,4.72,2.02,5.73c1.44,1.44,3.28,1.69,4.69,1.69s3.24-.25,4.69-1.69c1.01-1.01,2.02-2.85,2.02-5.73s-1.01-4.72-2.02-5.73c-1.44-1.44-3.28-1.7-4.69-1.7s-3.24,.25-4.69,1.7Z"/><path d="M321.12,25.95h-8V.72h7.68l11.17,15.21V.72h8V25.95h-7.64l-11.21-15.21v15.21Z"/><path d="M365.21,10.45v5.48h-13.16v4.11h16.36v5.91h-24.36V.72h23.97V6.63h-15.97v3.82h13.16Z"/></g><g><path d="M103.97,55.86c-.1,1.37-.71,2.3-1.28,2.87-1.42,1.43-3.34,1.54-4.91,1.54s-3.43-.14-4.91-1.59c-.57-.57-1.7-1.99-1.7-4.62,0-2.41,.98-3.81,1.67-4.52,1.49-1.52,3.48-1.77,5-1.77,1.28,0,3.07,.17,4.37,1.11,1.42,1.03,1.62,2.35,1.67,3.05h-2.7c-.05-.51-.24-1.13-.98-1.64-.67-.46-1.48-.54-2.21-.54-.95,0-2.04,.14-2.94,1.08-.52,.56-1.1,1.54-1.1,3.19,0,1.48,.46,2.6,1.13,3.27,.88,.86,1.97,.98,2.87,.98,.76,0,1.67-.08,2.4-.66,.41-.32,.84-.88,.93-1.76h2.7Z"/><path d="M114.3,52.19c.84,.71,1.47,1.81,1.47,3.43,0,1.81-.81,2.87-1.47,3.43-1.18,1-2.77,1.18-3.95,1.18s-2.78-.19-3.97-1.18c-.66-.56-1.47-1.62-1.47-3.43s.83-2.89,1.47-3.43c1.18-1,2.8-1.18,3.97-1.18s2.77,.19,3.95,1.18Zm-5.91,1.11c-.49,.47-.86,1.28-.86,2.3s.35,1.84,.86,2.33c.59,.57,1.32,.71,1.96,.71,.91,0,1.54-.29,1.96-.71,.57-.57,.84-1.48,.84-2.33s-.27-1.72-.84-2.3c-.61-.61-1.35-.71-1.96-.71s-1.37,.14-1.96,.71Z"/><path d="M123.51,52.94h-.13c-1.01,0-2.08,.1-2.8,.81-.66,.66-.84,1.6-.84,2.8v3.36h-2.45v-8.57h2.36v1.49h.03c.35-.64,.84-1.05,1.33-1.28,.61-.29,1.37-.39,2.21-.39h.29v1.79Z"/><path d="M126.88,51.33v1.15h.05c.35-.47,.78-.79,1.22-1.01,.73-.35,1.48-.42,2.14-.42,1.05,0,2.4,.19,3.38,1.11,1.05,1,1.23,2.38,1.23,3.38,0,1.64-.47,2.78-1.25,3.54-1.01,1-2.26,1.11-3.27,1.11-.83,0-1.59-.07-2.21-.35-.34-.15-.79-.44-1.18-.96v4.15h-2.45v-11.7h2.35Zm.89,1.97c-.47,.46-.86,1.25-.86,2.31,0,1.3,.51,1.99,.78,2.26,.61,.62,1.35,.73,1.96,.73s1.32-.1,1.91-.78c.62-.69,.73-1.6,.73-2.26,0-.61-.1-1.5-.73-2.18-.64-.69-1.49-.76-1.97-.76s-1.23,.12-1.81,.67Z"/><path d="M145.3,52.19c.84,.71,1.47,1.81,1.47,3.43,0,1.81-.81,2.87-1.47,3.43-1.18,1-2.77,1.18-3.95,1.18s-2.78-.19-3.97-1.18c-.66-.56-1.47-1.62-1.47-3.43s.83-2.89,1.47-3.43c1.18-1,2.8-1.18,3.97-1.18s2.77,.19,3.95,1.18Zm-5.91,1.11c-.49,.47-.86,1.28-.86,2.3s.35,1.84,.86,2.33c.59,.57,1.32,.71,1.96,.71,.91,0,1.54-.29,1.96-.71,.57-.57,.84-1.48,.84-2.33s-.27-1.72-.84-2.3c-.61-.61-1.35-.71-1.96-.71s-1.37,.14-1.96,.71Z"/><path d="M154.51,52.94h-.13c-1.01,0-2.08,.1-2.8,.81-.66,.66-.84,1.6-.84,2.8v3.36h-2.45v-8.57h2.36v1.49h.03c.35-.64,.84-1.05,1.33-1.28,.61-.29,1.37-.39,2.21-.39h.29v1.79Z"/><path d="M155.05,53.98c-.03-.95,.39-1.59,.78-1.96,.89-.84,2.63-1.03,3.81-1.03,1.1,0,2.92,.2,3.78,1.05,.64,.62,.73,1.42,.73,1.99v3.31c0,.32,0,.68,.15,.86,.13,.17,.34,.19,.44,.19,.12,0,.22-.02,.3-.05v1.52c-.41,.08-.69,.1-1.13,.1-.47,0-.93-.02-1.32-.24-.46-.25-.61-.61-.66-.88-.59,.64-1.23,.91-1.43,.98-.13,.05-.81,.29-2.13,.29-.69,0-1.84-.05-2.62-.62-.46-.34-.94-.95-.94-1.97,0-.66,.2-1.18,.62-1.62,.47-.49,1.05-.67,1.69-.81,.69-.13,1.28-.17,1.86-.22l.67-.07c1.06-.1,1.57-.2,1.82-.44,.19-.17,.22-.39,.22-.56,0-.47-.22-.74-.64-.94-.44-.2-1.03-.27-1.45-.27-.98,0-1.47,.27-1.5,.29-.34,.19-.64,.52-.62,1.11h-2.43Zm6.65,1.77c-.2,.17-.37,.22-.59,.27-.41,.1-.78,.13-1.16,.17l-.78,.07c-.56,.05-1.03,.12-1.37,.34-.34,.22-.46,.52-.46,.88,0,.32,.14,.59,.41,.79,.37,.29,.88,.32,1.23,.32,.54,0,1.21-.07,1.81-.52,.69-.54,.91-1.32,.91-2.21v-.1Z"/><path d="M165.39,51.33h1.84v-2.55h2.45v2.55h2.01v1.55h-2.01v4.22c0,.54,.07,.88,.22,1.05,.17,.2,.54,.29,.89,.29,.12,0,.49-.02,.93-.15v1.6c-.56,.19-1.13,.27-1.89,.27-.59,0-1.45-.07-2.03-.61-.54-.51-.57-1.21-.57-1.94v-4.73h-1.84v-1.55Z"/><path d="M182.71,57.22c-.13,1.25-.88,2.23-2.06,2.65-.46,.17-1.25,.35-2.95,.35-1.28,0-2.99-.14-4.12-1.2-.64-.61-1.22-1.65-1.22-3.27,0-1.72,.59-2.78,1.27-3.44,1.22-1.2,2.95-1.3,3.97-1.3,.94,0,2.85,.1,4.08,1.32,1.18,1.16,1.16,2.65,1.16,3.61v.19h-7.93c-.03,.89,.35,1.69,.95,2.08,.61,.41,1.54,.44,1.87,.44,.47,0,1.22-.05,1.67-.29,.57-.29,.76-.76,.83-1.13h2.48Zm-2.4-2.45c-.02-.69-.32-1.27-.69-1.59-.47-.42-1.27-.62-2.01-.62-.67,0-1.37,.17-1.86,.57-.4,.34-.76,.91-.83,1.64h5.38Z"/><path d="M190.7,48.09v11.81h-2.62v-11.81h2.62Z"/><path d="M200.38,58.81c-.24,.39-.61,.79-1.23,1.06-.49,.2-1.15,.32-2.19,.32-.89,0-2.33-.08-3.38-1.13-.37-.37-1.15-1.35-1.15-3.31,0-.89,.14-2.36,1.25-3.49,1.03-1.03,2.24-1.21,3.34-1.21,.66,0,1.35,.03,2.04,.34,.61,.25,1,.61,1.28,1.03v-4.32h2.45v11.81h-2.35v-1.1h-.07Zm-4.59-5.43c-.52,.56-.74,1.43-.74,2.24s.22,1.67,.74,2.24c.57,.62,1.35,.74,1.92,.74,.66,0,1.33-.1,1.91-.71,.4-.42,.79-1.13,.79-2.28,0-.54-.07-1.52-.78-2.23-.46-.47-1.16-.76-2.01-.76-.96,0-1.54,.42-1.84,.74Z"/><path d="M214.66,57.22c-.13,1.25-.88,2.23-2.06,2.65-.46,.17-1.25,.35-2.95,.35-1.28,0-2.99-.14-4.12-1.2-.64-.61-1.22-1.65-1.22-3.27,0-1.72,.59-2.78,1.27-3.44,1.22-1.2,2.95-1.3,3.97-1.3,.94,0,2.85,.1,4.08,1.32,1.18,1.16,1.16,2.65,1.16,3.61v.19h-7.93c-.03,.89,.35,1.69,.95,2.08,.61,.41,1.54,.44,1.87,.44,.47,0,1.22-.05,1.67-.29,.57-.29,.76-.76,.83-1.13h2.48Zm-2.4-2.45c-.02-.69-.32-1.27-.69-1.59-.47-.42-1.27-.62-2.01-.62-.67,0-1.37,.17-1.86,.57-.4,.34-.76,.91-.83,1.64h5.38Z"/><path d="M218.67,51.33v1.1c.56-.64,1.13-.93,1.27-1,.64-.32,1.38-.41,2.04-.41,.89,0,2.03,.14,2.82,.95,.73,.74,.79,1.6,.79,2.41v5.52h-2.45v-4.84c0-.57-.02-1.32-.44-1.81-.32-.35-.86-.57-1.47-.57-.66,0-1.27,.24-1.67,.64-.71,.71-.81,1.79-.81,2.51v4.07h-2.45v-8.57h2.36Z"/><path d="M226.62,51.33h1.84v-2.55h2.45v2.55h2.01v1.55h-2.01v4.22c0,.54,.07,.88,.22,1.05,.17,.2,.54,.29,.89,.29,.12,0,.49-.02,.93-.15v1.6c-.56,.19-1.13,.27-1.89,.27-.59,0-1.45-.07-2.03-.61-.54-.51-.57-1.21-.57-1.94v-4.73h-1.84v-1.55Z"/><path d="M234.07,48.01h2.51v1.81h-2.51v-1.81Zm2.48,3.32v8.57h-2.45v-8.57h2.45Z"/><path d="M237.61,51.33h1.84v-2.55h2.45v2.55h2.01v1.55h-2.01v4.22c0,.54,.07,.88,.22,1.05,.17,.2,.54,.29,.89,.29,.12,0,.49-.02,.93-.15v1.6c-.56,.19-1.13,.27-1.89,.27-.59,0-1.45-.07-2.03-.61-.54-.51-.57-1.21-.57-1.94v-4.73h-1.84v-1.55Z"/><path d="M245.21,61.32c.27,.1,.56,.15,.86,.15,.52,0,.84-.12,1.03-.27,.27-.2,.52-.67,.66-1.08l.22-.66-3.73-8.13h2.53l2.55,6.13,2.23-6.13h2.36l-3.76,9.01c-.42,1.03-.76,1.65-1.2,2.08-.68,.66-1.42,.71-2.14,.71-.56,0-1-.03-1.6-.24v-1.57Z"/></g></svg>