<svg id="_1" data-name="1" xmlns="http://www.w3.org/2000/svg" width="252" height="251" viewBox="0 0 252 251">
  <defs>
    <style>
      .cls-1 {
        fill: none;
        stroke: #cbf35b;
        stroke-width: 2px;
      }

      .cls-1, .cls-2 {
        fill-rule: evenodd;
      }

      .cls-2 {
        fill: #cdf500;
      }
    </style>
  </defs>
  <path id="楕円形_4" data-name="楕円形 4" class="cls-1" d="M1393.99,4241.04c69.03,0,125,55.74,125,124.5s-55.97,124.5-125,124.5-125-55.74-125-124.5S1324.95,4241.04,1393.99,4241.04Z" transform="translate(-1268 -4240.03)"/>
  <path id="_1-2" data-name="1" class="cls-2" d="M1382.48,4350.61c2.42-2.4,8.45-9.4,17.77-21.39-2.88,11.79-5.37,24.79-7.64,38.79q-3.15,21.3-6.38,39.6c-1.92,12-3.74,21.2-5.56,27s-0.64,10.4,3.43,13.4c3.2,0,5.12-1.8,5.79-5.6,0.47-3.8,1.66-9.4,2.93-16.6,6.1-38,13.33-75.6,21.45-112.59-1.14-6-2.58-9.2-4.07-9.8-1.66-.8-3.24.2-5.02,2.4-10.19,12.4-20.08,25.39-29.44,38.79Q1376.34,4349.71,1382.48,4350.61Z" transform="translate(-1268 -4240.03)"/>
</svg>
