<svg id="_2" data-name="2" xmlns="http://www.w3.org/2000/svg" width="252" height="251" viewBox="0 0 252 251">
  <defs>
    <style>
      .cls-1 {
        fill: none;
        stroke: #cbf35b;
        stroke-width: 2px;
      }

      .cls-1, .cls-2 {
        fill-rule: evenodd;
      }

      .cls-2 {
        fill: #cdf500;
      }
    </style>
  </defs>
  <path id="楕円形_4" data-name="楕円形 4" class="cls-1" d="M1073.99,4797.96c69.03,0,125,55.74,125,124.5s-55.97,124.5-125,124.5-125-55.74-125-124.5S1004.95,4797.96,1073.99,4797.96Z" transform="translate(-948 -4796.97)"/>
  <path id="_2-2" data-name="2" class="cls-2" d="M1052.22,4905.61c1.89,0.6,3,0,3.25-1.4-3.03-7.8-1.72-15.2,4.35-22.4,4.85-5.99,10.16-9.99,16.11-11.99,5.75-2,10.46-2.6,13.92-1.8s6.56,3.6,9.59,8c2.99,4.59.84,13.39-6.29,26.59-15.48,22-30.63,44.4-45.38,66.8-3.85,4.8-8.76,10-14.42,16-3.46,6-3.69,9.6-.1,10.8a17.469,17.469,0,0,0,9.42,1c2.87-.4,7.38-1,13.48-1.6,6.07-.4,20.71-0.6,44.11-0.6a8.246,8.246,0,0,0,2.48-5,6.759,6.759,0,0,0-2.22-5.6q-2.52-2.7-4.48-1.8-34.53,3.6-47.54,4.2c15.54-24.6,30.02-46.6,43.6-65.8,13.39-19.2,20.39-32.8,20.76-40.6s-3.73-13.99-12.55-18.39c-8.59-4.6-17.39-4.6-26.3-.6-16.69,6.2-26.52,16.6-29.3,31.19C1044.36,4898.01,1046.98,4902.41,1052.22,4905.61Z" transform="translate(-948 -4796.97)"/>
</svg>
