<svg id="_3" data-name="3" xmlns="http://www.w3.org/2000/svg" width="252" height="251" viewBox="0 0 252 251">
  <defs>
    <style>
      .cls-1 {
        fill: none;
        stroke: #cbf35b;
        stroke-width: 2px;
      }

      .cls-1, .cls-2 {
        fill-rule: evenodd;
      }

      .cls-2 {
        fill: #cdf500;
      }
    </style>
  </defs>
  <path id="楕円形_4" data-name="楕円形 4" class="cls-1" d="M1570.99,5281.03c69.03,0,125,55.74,125,124.5s-55.97,124.5-125,124.5-125-55.74-125-124.5S1501.95,5281.03,1570.99,5281.03Z" transform="translate(-1445 -5280.03)"/>
  <path id="_3-2" data-name="3" class="cls-2" d="M1540.44,5481.81c3.81,3.4,9.16,4.8,15.9,4a133.273,133.273,0,0,0,15.89-2.8c16.84-17.2,27.29-30,31.21-38.6q5.925-13.2,7.19-20.4c0.89-5,.96-8.8.01-11.4a8.945,8.945,0,0,0-6.21-5.6,12.18,12.18,0,0,1-6.76-7c10.72-13.2,16.05-26.4,15.74-39.39-5.17-12.6-14.83-16.8-29.34-12.8-18.95,5.4-31.48,15.2-37.71,28.99-1.06,2.6-.38,4.4,1.65,5.4a10.4,10.4,0,0,0,4.91,1.6c1,0,2.29-1.6,3.89-5,1.43-3.6,5.51-8.6,12.04-14.99a48.763,48.763,0,0,1,16.61-8c6.12-1.8,12.74-.8,19.54,2.6-3.22,22.79-16.5,41.39-39.57,55.39-0.7.6-.91,1.8-0.6,3.4a6.434,6.434,0,0,0,3.33,3.8c1.66,0.8,3.3.6,5.31-.6,1.81-1.2,5.76-3.2,11.93-6.4,6.13-3,10.76-3.2,14.34-.8,1.26,4.2.02,11.2-3.54,21.2a65.236,65.236,0,0,1-16.15,25.8c-7.3,7.4-13.31,12-17.9,14.2-4.75,2-8.22,2.4-10.14.8-5.54-2.6-8.88-5.2-10.46-7.6q-2.07-3.6-6-10.2c-2.39-4.6-4.07-6.4-4.82-5.6-2.86,7.2-3.49,13-2.03,17.2C1530.33,5473.41,1534.19,5477.61,1540.44,5481.81Z" transform="translate(-1445 -5280.03)"/>
</svg>
