<svg xmlns="http://www.w3.org/2000/svg" width="771.904" height="42.219" viewBox="0 0 771.904 42.219">
  <defs>
    <style>
      .cls-1 {
        fill: #323c55;
        fill-rule: evenodd;
      }
    </style>
  </defs>
  <path id="場所を理由に_仕事を諦めなくていい" data-name="場所を理由に、仕事を諦めなくていい" class="cls-1" d="M669.736,759.984H658.127l0.381-2.16h11.609Zm-1,5.669h-11.61l0.381-2.16h11.609Zm6.981-11.519H654.433l-2.681,15.209h21.284ZM675,775.553l0.793-4.5h-28.3l-0.793,4.5h5.085a28.511,28.511,0,0,1-4.981,4.77L646.53,776.5l-3.877,1.575,1.872-10.62h4.23l0.889-5.039h-4.23l1.563-8.865h-4.95l-1.563,8.865h-4.5l-0.888,5.039h4.5l-2.237,12.69c-2.266.855-4.291,1.62-5.924,2.2l1.028,5.4c2.983-1.35,6.508-2.97,10.034-4.59a14.25,14.25,0,0,1,2.954,3.15,36.087,36.087,0,0,0,6.043-4.41h2.655a35.045,35.045,0,0,1-10.616,8.144,12.159,12.159,0,0,1,2.954,3.15A44.521,44.521,0,0,0,658.987,781.9h2.655c-2.673,4.185-6.394,8.189-10.194,10.349a11.4,11.4,0,0,1,3.256,2.97c4.145-2.835,8.615-8.279,11.348-13.319h1.755c-1.455,5.445-2.4,7.739-3.149,8.414a1.8,1.8,0,0,1-1.437.5c-0.585,0-1.755,0-3.171-.135a9.648,9.648,0,0,1,.477,4.185,28.633,28.633,0,0,0,4.561-.09,5.11,5.11,0,0,0,3.239-1.53c1.446-1.3,2.8-4.9,4.977-13.679,0.157-.63.416-1.845,0.416-1.845H655.451c0.576-.72,1.153-1.44,1.64-2.16H675Zm32.04-20.339H687.152l-0.857,4.86h19.889Zm-8.367,13-1.008,5.715h-7.245l1.008-5.715h7.245Zm3.273,10.53,2.7-15.3h-17.5l-2.015,11.43c-0.913,5.175-2.376,12.195-6.194,17.009a17.937,17.937,0,0,1,3.666,3.2c3.568-4.41,5.647-10.844,6.885-16.334h12.465ZM726,768.173H711.551l1.031-5.849a87.7,87.7,0,0,0,15.024-4.815l-4.011-4.05a60.351,60.351,0,0,1-11.757,4.41l-3.539-.855-2.19,12.419c-1.174,6.66-3.375,15.57-10.749,21.914a10.19,10.19,0,0,1,3.325,3.6c7.04-5.985,10.245-14.714,11.863-21.6h5.22l-3.824,21.689h5.31l3.824-21.689h4Zm27.037-13.139-5.853-.5a28.406,28.406,0,0,1-1.812,5.175h-2.16a56.487,56.487,0,0,1-7.825-.54l-0.928,5.264c2.443,0.18,5.712.27,7.557,0.27H742.6c-2.739,4.05-6.64,8.055-12.134,12.42l4.18,3.6a67.4,67.4,0,0,1,5.057-4.95,13.167,13.167,0,0,1,7.567-3.105,2.856,2.856,0,0,1,2.88,1.53c-5.6,2.655-11.632,6.255-12.648,12.015-1.023,5.8,3.895,7.514,10.96,7.514a116.224,116.224,0,0,0,12.869-.765l1.2-5.8a77.451,77.451,0,0,1-13,1.259c-4.41,0-6.406-.674-5.969-3.149,0.4-2.25,2.506-4,6.222-5.94-0.394,1.98-.82,4.14-1.193,5.49h5.4c0.32-2.07.817-5.4,1.216-7.92,2.967-1.26,5.707-2.25,7.874-3.06,1.634-.585,4.177-1.485,5.688-1.89l-1.329-5.22c-1.816.855-3.518,1.575-5.407,2.34-1.988.81-4.013,1.575-6.543,2.655-0.586-2.295-2.629-3.465-5.374-3.465a16.678,16.678,0,0,0-5.244.9,40.012,40.012,0,0,0,3.375-4.59,139.526,139.526,0,0,0,14.867-1.125l0.966-5.219a120.145,120.145,0,0,1-12.965,1.3C752.031,757.644,752.608,756.159,753.032,755.034ZM789.647,781c-1.528.5-3.092,0.945-4.656,1.395l1.587-9h4.05l0.864-4.9h-4.049l1.4-7.919h4.815l0.881-5h-14.85l-0.88,5h4.949l-1.4,7.919h-4.545l-0.865,4.9h4.545l-1.865,10.575c-2.173.585-4.105,1.08-5.751,1.485l0.255,5.444c4.565-1.4,10.267-3.1,15.526-4.859Zm9.326-13.59h4.634l-0.682,3.87H798.29Zm1.4-7.964h4.635l-0.667,3.78H799.71Zm12.923,3.78h-4.455l0.667-3.78h4.454Zm-1.42,8.054h-4.455l0.682-3.87h4.455Zm-7.047,17.5,0.754-4.274h9.54l0.849-4.815h-9.54l0.682-3.87h9.045l3.69-20.924H796.364l-3.69,20.924h9l-0.683,3.87h-9.314l-0.849,4.815h9.314l-0.754,4.274H786.969l-0.857,4.86h28.934l0.857-4.86h-11.07Zm41.645-1.439,1.349-7.65h9.855l-1.349,7.65h-9.855Zm-13.725-7.65h9.54l-1.349,7.65H831.4Zm11.785-12.735-1.325,7.515h-9.54L835,766.958h9.54Zm15.389,0-1.325,7.515h-9.854l1.325-7.515h9.854Zm-8.9-5.4,1.5-8.5H846.99l-1.5,8.5H830.6l-5.9,33.478h5.354l0.421-2.385H855.4l-0.413,2.34h5.625l5.895-33.433H851.025Zm43.29-1.89-1.015,5.759a120.768,120.768,0,0,0,19.349,0l1.024-5.8A92.685,92.685,0,0,1,894.315,759.669Zm0.212,19.214-5.087-.5a30.649,30.649,0,0,0-1.8,5.85c-0.817,4.634,2.434,7.379,10.174,7.379a66.357,66.357,0,0,0,11.76-.855l0.981-6.074a56.111,56.111,0,0,1-11.5,1.17c-4.59,0-6.085-1.215-5.736-3.195A17.083,17.083,0,0,1,894.527,778.883Zm-6.61-22.229-6.2-.54c-0.3,1.44-.871,3.15-1.228,4.41-1.106,3.464-3.842,11.069-5.032,17.819a56.375,56.375,0,0,0-.839,14.714l5.283-.36c0.066-.63.148-1.35,0.235-1.845a14.922,14.922,0,0,1,.6-2.115c0.916-2.384,3.265-7.289,5.184-11.024l-2.4-2.2c-0.892,1.485-1.89,3.06-2.834,4.59a22.029,22.029,0,0,1,.335-2.925c0.794-4.5,3.956-13.5,5.072-16.514C886.409,759.849,887.391,757.6,887.917,756.654Zm38.9,37.573,5.545-4.14a62.337,62.337,0,0,0-8.072-9.854l-5.394,4.05A67.885,67.885,0,0,1,926.814,794.227ZM966.8,753.1a60.553,60.553,0,0,1-14.485,17.324,27.655,27.655,0,0,1,2.137,5.49c1.429-1.215,2.874-2.52,4.306-4l-4.07,23.084h5.31l5.435-30.824a91.31,91.31,0,0,0,6.293-9.4Zm27.973,18.719,0.92-5.22H984.3l2.237-12.689h-5.49L978.814,766.6H966.889l-0.92,5.22h11.924L975.005,788.2h-10.8l-0.9,5.13H990.21l0.9-5.13H980.5l2.888-16.379h11.385Zm35.092,12.825h-8.1l0.37-2.115h8.1Zm-6.67-8.145h8.1l-0.34,1.935h-8.1Zm-10.93-8.955,0.38-2.16h7.07l-0.38,2.16h-7.07Zm20.18-2.16-0.38,2.16h-7.29l0.38-2.16h7.29Zm8.64,13.05h-4.68l0.97-5.535h-13.54l0.35-1.98h12.78l1.57-8.909h-12.78l0.32-1.845h17.19l0.75-4.23h-17.19l0.52-2.925h-5.45l-0.52,2.925h-16.78l-0.75,4.23h16.79l-0.33,1.845h-12.19l-1.57,8.909h12.19l-0.35,1.98h-13.32l-0.63,3.6h13.32l-0.34,1.935H999.588l-0.722,4.1h17.824l-0.38,2.115h-13.68l-0.68,3.869h13.68l-0.25,1.4a1.152,1.152,0,0,1-1.32,1.125c-0.72,0-3.37,0-5.52-.09a14.106,14.106,0,0,1,1.01,4.23c3.83,0,6.27-.09,8.1-0.765,1.89-.765,2.71-1.845,3.18-4.5l0.24-1.4h8.1l-0.32,1.845h5.44l1.38-7.829h4.68Zm29.42-23.4-5.85-.5a28.93,28.93,0,0,1-1.81,5.175h-2.16a56.484,56.484,0,0,1-7.83-.54l-0.93,5.264c2.45,0.18,5.72.27,7.56,0.27h0.59c-2.74,4.05-6.64,8.055-12.14,12.42l4.18,3.6a67.2,67.2,0,0,1,5.06-4.95,13.165,13.165,0,0,1,7.57-3.105,2.86,2.86,0,0,1,2.88,1.53c-5.6,2.655-11.64,6.255-12.65,12.015-1.02,5.8,3.89,7.514,10.96,7.514a116.228,116.228,0,0,0,12.87-.765l1.2-5.8a77.428,77.428,0,0,1-13,1.259c-4.41,0-6.41-.674-5.97-3.149,0.4-2.25,2.51-4,6.22-5.94-0.39,1.98-.82,4.14-1.19,5.49h5.4c0.32-2.07.82-5.4,1.22-7.92,2.96-1.26,5.7-2.25,7.87-3.06,1.63-.585,4.18-1.485,5.69-1.89l-1.33-5.22c-1.82.855-3.52,1.575-5.41,2.34-1.99.81-4.01,1.575-6.54,2.655-0.59-2.295-2.63-3.465-5.38-3.465a16.7,16.7,0,0,0-5.24.9,40.147,40.147,0,0,0,3.38-4.59,139.351,139.351,0,0,0,14.86-1.125l0.97-5.219a120.136,120.136,0,0,1-12.97,1.3C1069.5,757.644,1070.08,756.159,1070.5,755.034Zm41.11-.63H1099.5l-0.71,4.05h12.1Zm-9.32,28.844-0.91,5.174h-3.91l0.91-5.174h3.91Zm5.15-4.185h-12.69l-2.7,15.344h4.36l0.32-1.8h8.32Zm-12.17-2.205h12.47l0.71-4h-12.47Zm14.26-10.17h-12.46l-0.72,4.1h12.46Zm-14.09-2.025h15.93l0.75-4.229h-15.93Zm38.43,10.485h-8.78l0.69-3.87h-4.95l-0.68,3.87h-8.42l-2.74,15.569h4.9l1.93-10.934h3.51l-2.7,15.3h4.95l2.7-15.3h3.91l-1.08,6.12a0.557,0.557,0,0,1-.68.54c-0.4,0-1.71,0-2.91-.045a16.27,16.27,0,0,1,.57,4.634c2.34,0,3.98-.09,5.46-0.855s2.03-2.07,2.41-4.184Zm-5.5-13.724c-0.6,1.35-1.42,2.924-2.07,4.094l0.51,0.135h-5.04l0.19-.045a20.456,20.456,0,0,0-.52-4.184h6.93Zm2.94,4.229c0.75-1.17,1.63-2.609,2.56-4.049l-0.73-.18h4.14l0.79-4.5h-9.49l0.68-3.87h-5.35l-0.69,3.87h-9.54l-0.79,4.5h3.96l-0.38.09a22.416,22.416,0,0,1,.49,4.139h-5.4l-1.49,8.46h4.81l0.71-4.005h15.61l-0.7,4.005h4.99l1.49-8.46h-5.67Zm44-9.809-6.1-.585a33.7,33.7,0,0,1-1.12,4.275q-0.315,1.012-.78,2.16a27.8,27.8,0,0,0-10.69,2.7c-0.15-.945-0.26-1.889-0.33-2.744-0.12-1.35-.22-2.835-0.23-4.32l-6.22,1.845a24.394,24.394,0,0,1,.98,4.679c0.19,1.215.33,2.43,0.57,3.645-4.73,3.6-8.26,9.09-9.17,14.22-1.02,5.805,1.84,8.954,5.58,8.954,3.33,0,6.11-1.485,9.7-4.769,0.35,0.585.79,1.17,1.22,1.755l5.18-3.6a29.287,29.287,0,0,1-2-2.7,70.488,70.488,0,0,0,8.65-14.31c4.28,1.215,6.41,4.95,5.53,9.945-0.99,5.625-5.8,10.71-15.8,11.519l2.5,5.22c9.62-1.44,17.37-6.884,19.05-16.424,1.39-7.875-2.28-13.59-9.06-15.209,0.24-.585.47-1.125,0.71-1.71C1173.94,759.264,1174.74,757.059,1175.31,755.844Zm-27.74,25.424a16.554,16.554,0,0,1,4.82-8.46,40.544,40.544,0,0,0,2.66,8.64c-2.02,2.025-3.93,3.42-5.55,3.42S1147.18,783.473,1147.57,781.268Zm9.8-11.97a21.156,21.156,0,0,1,7.69-2.52,63.614,63.614,0,0,1-5.72,9.72A39,39,0,0,1,1157.37,769.3Zm54.29-14.4-6.1-.63a42.281,42.281,0,0,1-2.54,7.515c-1.42.135-2.78,0.18-4.13,0.18a55.129,55.129,0,0,1-5.92-.315l-0.52,5.219c1.91,0.135,3.75.18,5.59,0.18,0.77,0,1.53,0,2.35-.045a90.579,90.579,0,0,1-11.98,15.885l4.95,2.79a104.339,104.339,0,0,0,13.03-19.26c3.09-.45,5.99-1.035,8.15-1.575l0.74-5.219a61.8,61.8,0,0,1-6.33,1.44C1210.06,758.634,1211.05,756.339,1211.66,754.9Zm-7.83,31.139c0.28-1.575,2.15-2.745,4.76-2.745a15.084,15.084,0,0,1,3.56.45c-0.06.36-.11,0.63-0.16,0.9-0.43,2.475-1.68,4.184-4.78,4.184C1204.73,788.827,1203.54,787.7,1203.83,786.038Zm15.89-17.145h-5.62c-0.4,2.745-.88,6.75-1.29,10.08-1.01-.09-1.99-0.18-3.07-0.18-6.25,0-10.54,3.375-11.32,7.785-0.87,4.949,3.1,7.424,8.68,7.424,6.39,0,9.26-3.24,10-7.424,0.02-.135.05-0.315,0.08-0.45a29.426,29.426,0,0,1,5.22,4.814l3.87-4.814a23.207,23.207,0,0,0-8.3-5.76c0.3-2.25.55-4.41,0.74-5.715C1219.01,772.673,1219.25,770.783,1219.72,768.893Zm7.32,2.385,4.03-4.725a61.376,61.376,0,0,0-10.04-6.119l-3.66,4.454A51.2,51.2,0,0,1,1227.04,771.278Zm38.5-12.6-4.45-4.635a40.159,40.159,0,0,1-4.14,3.825c-3.53,2.925-10.57,7.919-14.63,10.8-5.17,3.78-5.95,6.165-2.13,9.99,3.48,3.51,9.1,9.135,11.35,11.969,1.11,1.35,2.16,2.79,3.18,4.185l6.11-4.815c-3.81-4.454-11.16-11.2-14.04-14.039-2.06-2.115-2.01-2.61.74-4.68,3.46-2.565,10.21-7.155,13.55-9.494C1262.26,760.929,1263.96,759.759,1265.54,758.679Zm11.24,1.485-0.5,6.164c5.42-1.125,14.77-2.115,19.08-2.565a22.506,22.506,0,0,0-9.11,13.9c-1.71,9.72,6.3,14.8,15.59,15.434l3.21-6.164c-7.54-.4-13.99-3.105-12.69-10.485,0.94-5.355,6.03-11.2,11.72-12.645a52.854,52.854,0,0,1,8.79-.584l0.97-5.76c-3.16.09-8.17,0.4-12.87,0.765-8.36.72-15.9,1.395-19.69,1.71C1280.36,760.029,1278.59,760.119,1276.78,760.164Zm53.19-1.215-6.91-.09a28.147,28.147,0,0,1-.45,4.589c-0.49,2.745-1.37,8.01-1.65,12.15-0.87,12.06,2.62,16.514,7.57,16.514,3.6,0,6.92-2.745,11.27-10.574l-3.53-5.49c-1.49,3.6-4.22,8.865-6.33,8.865-2.84,0-3.4-4.455-2.89-10.935,0.3-3.24.85-6.615,1.41-9.54A39.829,39.829,0,0,1,1329.97,758.949Zm22.32,1.035-6.04,1.845c3.92,5.579,4.37,16.514,3.82,23.759l6.3-2.295C1357.09,776.408,1355.65,765.158,1352.29,759.984Zm24.43-1.035-6.92-.09a26.1,26.1,0,0,1-.45,4.589c-0.48,2.745-1.36,8.01-1.64,12.15-0.87,12.06,2.62,16.514,7.57,16.514,3.6,0,6.92-2.745,11.27-10.574l-3.53-5.49c-1.49,3.6-4.22,8.865-6.34,8.865-2.83,0-3.4-4.455-2.88-10.935,0.3-3.24.85-6.615,1.41-9.54A39.829,39.829,0,0,1,1376.72,758.949Zm22.31,1.035-6.04,1.845c3.92,5.579,4.38,16.514,3.82,23.759l6.3-2.295C1403.83,776.408,1402.4,765.158,1399.03,759.984Z" transform="translate(-631.406 -753)"/>
</svg>
