<svg xmlns="http://www.w3.org/2000/svg" width="551.125" height="30" viewBox="0 0 551.125 30">
  <defs>
    <style>
      .cls-1 {
        fill: #323c55;
        fill-rule: evenodd;
      }
    </style>
  </defs>
  <path id="場所を理由に_仕事を諦めなくていい" data-name="場所を理由に、仕事を諦めなくていい" class="cls-1" d="M85.9,693.98H77.64l0.271-1.536h8.255Zm-0.711,4.032H76.928l0.271-1.536h8.255Zm4.965-8.192H75.014l-1.908,10.815H88.241Zm-0.511,15.231,0.565-3.2H70.075l-0.564,3.2h3.616a20.265,20.265,0,0,1-3.542,3.392l-0.192-2.72-2.757,1.12,1.332-7.551h3.008l0.632-3.584H68.6l1.112-6.3h-3.52l-1.112,6.3h-3.2l-0.632,3.584h3.2l-1.592,9.023c-1.611.608-3.051,1.152-4.212,1.568l0.73,3.84c2.121-.96,4.628-2.112,7.135-3.264a10.137,10.137,0,0,1,2.1,2.24,25.666,25.666,0,0,0,4.3-3.136h1.888a24.9,24.9,0,0,1-7.549,5.791,8.652,8.652,0,0,1,2.1,2.24,31.677,31.677,0,0,0,8.9-8.031h1.888a22.761,22.761,0,0,1-7.25,7.359,8.1,8.1,0,0,1,2.315,2.112,29.288,29.288,0,0,0,8.071-9.471h1.248c-1.035,3.872-1.707,5.5-2.24,5.983a1.283,1.283,0,0,1-1.022.352c-0.416,0-1.248,0-2.255-.1a6.863,6.863,0,0,1,.339,2.976,20.357,20.357,0,0,0,3.243-.064,3.636,3.636,0,0,0,2.3-1.088c1.028-.928,1.991-3.487,3.54-9.727,0.111-.448.3-1.312,0.3-1.312H75.735c0.41-.512.821-1.024,1.167-1.536H89.637ZM112.5,690.588H98.361l-0.61,3.456h14.143Zm-5.952,9.248-0.717,4.063h-5.151l0.717-4.063h5.151Zm2.327,7.487,1.92-10.879H98.352l-1.434,8.127c-0.649,3.68-1.69,8.672-4.406,12.1a12.743,12.743,0,0,1,2.607,2.272c2.537-3.136,4.017-7.711,4.9-11.615h8.863Zm17.1-7.519H115.709l0.734-4.16a62.369,62.369,0,0,0,10.684-3.424l-2.852-2.88a42.9,42.9,0,0,1-8.361,3.136l-2.516-.608L111.84,700.7c-0.836,4.736-2.4,11.072-7.646,15.583a7.253,7.253,0,0,1,2.365,2.56c5.006-4.256,7.285-10.463,8.437-15.359h3.712l-2.721,15.423h3.775l2.722-15.423h2.847Zm19.355-9.344-4.162-.352a20.185,20.185,0,0,1-1.289,3.68h-1.536a40.16,40.16,0,0,1-5.564-.384l-0.66,3.744c1.737,0.128,4.062.192,5.374,0.192h0.416a40.721,40.721,0,0,1-8.63,8.831l2.972,2.56a47.748,47.748,0,0,1,3.6-3.52A9.363,9.363,0,0,1,141.235,703a2.032,2.032,0,0,1,2.048,1.088c-3.981,1.888-8.272,4.448-8.995,8.544-0.728,4.127,2.769,5.343,7.793,5.343a82.666,82.666,0,0,0,9.151-.544l0.856-4.127a55.079,55.079,0,0,1-9.245.9c-3.136,0-4.555-.48-4.245-2.24,0.283-1.6,1.783-2.848,4.425-4.224-0.28,1.408-.583,2.944-0.849,3.9h3.84c0.228-1.472.582-3.84,0.866-5.632,2.11-.9,4.058-1.6,5.6-2.176,1.162-.416,2.97-1.056,4.045-1.344l-0.945-3.711c-1.291.608-2.5,1.12-3.845,1.664-1.414.575-2.854,1.119-4.653,1.887-0.416-1.632-1.869-2.463-3.821-2.463a11.858,11.858,0,0,0-3.729.64,28.393,28.393,0,0,0,2.4-3.264,99.238,99.238,0,0,0,10.573-.8l0.687-3.712a85.466,85.466,0,0,1-9.22.928C144.625,692.316,145.035,691.26,145.336,690.46Zm26.157,18.463c-1.086.352-2.2,0.672-3.311,0.992l1.129-6.4h2.88l0.616-3.487h-2.88l0.993-5.632h3.424l0.627-3.552H164.412l-0.627,3.552h3.52l-0.994,5.632h-3.232l-0.615,3.487H165.7l-1.327,7.52c-1.545.416-2.919,0.768-4.09,1.056l0.181,3.871c3.247-.992,7.3-2.207,11.041-3.455Zm6.633-9.663h3.295l-0.485,2.751h-3.3Zm1-5.664h3.3l-0.474,2.688h-3.3Zm9.189,2.688h-3.168l0.475-2.688h3.167Zm-1.011,5.727h-3.167l0.485-2.751h3.168Zm-5.011,12.447,0.536-3.039h6.783l0.6-3.424h-6.783l0.485-2.752h6.432l2.625-14.879h-16.7l-2.625,14.879h6.4L179.56,708h-6.623l-0.6,3.424h6.623l-0.536,3.039h-8.832l-0.609,3.456h20.574l0.61-3.456h-7.871Zm29.7-1.023,0.96-5.44h7.007l-0.96,5.44H212Zm-9.76-5.44h6.784l-0.96,5.44h-6.783Zm8.382-9.055-0.943,5.343h-6.784l0.943-5.343h6.784Zm10.943,0-0.943,5.343H213.61l0.943-5.343h7.008Zm-6.33-3.84,1.067-6.048h-3.936L211.3,695.1H200.7l-4.2,23.806h3.808l0.3-1.7h17.727l-0.294,1.664h4l4.195-23.774H215.231Zm30.893-1.344-0.723,4.1a85.876,85.876,0,0,0,13.759,0l0.729-4.128A65.9,65.9,0,0,1,246.124,693.756Zm0.149,13.663-3.617-.352a21.765,21.765,0,0,0-1.278,4.16c-0.582,3.3,1.73,5.247,7.233,5.247a47.189,47.189,0,0,0,8.363-.608l0.7-4.319a39.892,39.892,0,0,1-8.178.832c-3.264,0-4.327-.864-4.079-2.272A12.158,12.158,0,0,1,246.273,707.419Zm-4.7-15.807-4.412-.384c-0.213,1.024-.619,2.24-0.873,3.136a98.534,98.534,0,0,0-3.58,12.671,40.069,40.069,0,0,0-.6,10.463l3.757-.256c0.047-.448.1-0.96,0.167-1.312a10.8,10.8,0,0,1,.425-1.5c0.652-1.7,2.323-5.183,3.687-7.839l-1.707-1.568c-0.634,1.056-1.344,2.176-2.016,3.264a15.717,15.717,0,0,1,.239-2.08,94.872,94.872,0,0,1,3.608-11.743C240.5,693.884,241.2,692.284,241.575,691.612Zm27.772,26.718,3.943-2.944a44.317,44.317,0,0,0-5.739-7.007l-3.836,2.88A48.242,48.242,0,0,1,269.347,718.33Zm28.776-29.246a43.051,43.051,0,0,1-10.3,12.319,19.662,19.662,0,0,1,1.519,3.9c1.017-.864,2.044-1.792,3.063-2.848l-2.9,16.415h3.776l3.867-21.918a64.917,64.917,0,0,0,4.476-6.688Zm19.89,13.311,0.655-3.711h-8.1l1.593-9.024h-3.9l-1.592,9.024h-8.48l-0.655,3.711h8.48l-2.055,11.648h-7.68l-0.643,3.647H314.77l0.644-3.647h-7.551l2.055-11.648h8.095Zm25.063,9.12h-5.759l0.265-1.5h5.76Zm-4.737-5.792H344.1l-0.242,1.376H338.1Zm-7.772-6.367,0.271-1.536h5.024l-0.271,1.536h-5.024Zm14.35-1.536-0.271,1.536h-5.184l0.271-1.536h5.184Zm6.138,9.279h-3.328l0.7-3.936H338.79l0.249-1.408h9.087l1.118-6.335h-9.087l0.231-1.312h12.223l0.531-3.008H340.919l0.367-2.08h-3.872l-0.367,2.08H325.112l-0.531,3.008h11.935l-0.231,1.312h-8.671l-1.118,6.335h8.671l-0.248,1.408h-9.472L325,705.723h9.471l-0.243,1.376H321.553l-0.514,2.912h12.672l-0.266,1.5h-9.727l-0.486,2.752h9.728l-0.175.991a0.822,0.822,0,0,1-.941.8c-0.512,0-2.4,0-3.925-.064a10.053,10.053,0,0,1,.717,3.008c2.72,0,4.459-.064,5.76-0.544,1.344-.544,1.927-1.312,2.26-3.2l0.175-.991h5.76l-0.232,1.311h3.872l0.983-5.567h3.327Zm21.052-16.639-4.161-.352a20.269,20.269,0,0,1-1.29,3.68H365.12a40.145,40.145,0,0,1-5.563-.384l-0.661,3.744c1.737,0.128,4.062.192,5.374,0.192h0.416a40.721,40.721,0,0,1-8.63,8.831l2.972,2.56a48.128,48.128,0,0,1,3.6-3.52A9.363,9.363,0,0,1,368.006,703a2.032,2.032,0,0,1,2.048,1.088c-3.981,1.888-8.272,4.448-8.995,8.544-0.728,4.127,2.769,5.343,7.793,5.343a82.666,82.666,0,0,0,9.151-.544l0.856-4.127a55.059,55.059,0,0,1-9.245.9c-3.136,0-4.555-.48-4.245-2.24,0.283-1.6,1.783-2.848,4.425-4.224-0.28,1.408-.583,2.944-0.848,3.9h3.839c0.228-1.472.582-3.84,0.866-5.632,2.11-.9,4.058-1.6,5.6-2.176,1.161-.416,2.97-1.056,4.044-1.344l-0.945-3.711c-1.291.608-2.5,1.12-3.845,1.664-1.413.575-2.853,1.119-4.653,1.887-0.416-1.632-1.869-2.463-3.821-2.463a11.847,11.847,0,0,0-3.728.64,28.389,28.389,0,0,0,2.4-3.264,99.238,99.238,0,0,0,10.573-.8l0.687-3.712a85.447,85.447,0,0,1-9.219.928C371.4,692.316,371.806,691.26,372.107,690.46Zm29.35-.448H392.85l-0.509,2.88h8.608Zm-6.627,20.511-0.649,3.68H391.4l0.649-3.68h2.784Zm3.661-2.976h-9.023l-1.926,10.911h3.1l0.226-1.28h5.92Zm-8.651-1.568H398.7l0.5-2.848h-8.863Zm10.14-7.231h-8.864l-0.514,2.911h8.864Zm-10.018-1.44H401.29l0.53-3.008H390.493Zm27.323,7.455h-6.24l0.486-2.752h-3.52l-0.485,2.752h-5.984l-1.953,11.071h3.487l1.372-7.775h2.5l-1.919,10.879h3.519l1.92-10.879h2.784l-0.768,4.352a0.4,0.4,0,0,1-.484.384c-0.288,0-1.216,0-2.074-.032a11.384,11.384,0,0,1,.41,3.295,8.2,8.2,0,0,0,3.883-.608c1.056-.544,1.444-1.471,1.709-2.975ZM413.375,695c-0.425.96-1.007,2.08-1.473,2.912l0.367,0.1h-3.584l0.133-.032a14.523,14.523,0,0,0-.37-2.976h4.927Zm2.093,3.008c0.531-.832,1.16-1.856,1.82-2.88L416.767,695h2.944l0.564-3.2h-6.751l0.485-2.752H410.2l-0.486,2.752h-6.783l-0.565,3.2h2.816l-0.267.064a16.551,16.551,0,0,1,.344,2.944h-3.84l-1.061,6.015h3.424l0.5-2.848h11.1l-0.5,2.848h3.552l1.061-6.015h-4.032Zm31.391-6.976-4.342-.416a23.563,23.563,0,0,1-.792,3.04q-0.224.72-.559,1.536a19.763,19.763,0,0,0-7.6,1.92c-0.106-.672-0.179-1.344-0.232-1.952-0.087-.96-0.156-2.016-0.162-3.072l-4.423,1.312a17.6,17.6,0,0,1,.693,3.328c0.135,0.864.239,1.728,0.406,2.592a17.294,17.294,0,0,0-6.519,10.111c-0.729,4.128,1.308,6.367,3.964,6.367,2.368,0,4.346-1.056,6.9-3.391a14.65,14.65,0,0,0,.867,1.248l3.684-2.56a19.723,19.723,0,0,1-1.421-1.92A50.154,50.154,0,0,0,443.47,699c3.047,0.864,4.562,3.519,3.936,7.071-0.706,4-4.128,7.616-11.237,8.192l1.777,3.711c6.836-1.024,12.351-4.895,13.548-11.679,0.988-5.6-1.623-9.663-6.443-10.815,0.169-.416.333-0.8,0.5-1.216C445.886,693.468,446.451,691.9,446.859,691.036Zm-19.732,18.079a11.781,11.781,0,0,1,3.429-6.016,28.817,28.817,0,0,0,1.892,6.144c-1.438,1.44-2.8,2.432-3.949,2.432S426.85,710.683,427.127,709.115ZM434.1,700.6a15.048,15.048,0,0,1,5.468-1.791,45.574,45.574,0,0,1-4.067,6.911A27.768,27.768,0,0,1,434.1,700.6Zm38.738-10.239-4.337-.448a30.342,30.342,0,0,1-1.807,5.344c-1.009.1-1.974,0.128-2.934,0.128a39.307,39.307,0,0,1-4.216-.224l-0.367,3.712c1.359,0.1,2.665.128,3.977,0.128,0.544,0,1.088,0,1.67-.032a64.286,64.286,0,0,1-8.521,11.3l3.522,1.984a74.22,74.22,0,0,0,9.264-13.695c2.2-.32,4.257-0.736,5.8-1.12l0.527-3.712a44.106,44.106,0,0,1-4.5,1.024C471.7,693.02,472.4,691.388,472.838,690.364Zm-5.571,22.143c0.2-1.12,1.528-1.952,3.384-1.952a10.781,10.781,0,0,1,2.536.32c-0.046.256-.079,0.448-0.113,0.64-0.311,1.76-1.2,2.975-3.405,2.975C467.909,714.49,467.058,713.691,467.267,712.507Zm11.3-12.191h-4c-0.281,1.951-.623,4.8-0.913,7.167-0.725-.064-1.417-0.128-2.185-0.128-4.448,0-7.5,2.4-8.048,5.536-0.621,3.519,2.2,5.279,6.171,5.279,4.544,0,6.583-2.3,7.108-5.279,0.017-.1.039-0.224,0.056-0.32a20.923,20.923,0,0,1,3.716,3.423l2.748-3.423a16.467,16.467,0,0,0-5.9-4.1c0.218-1.6.393-3.136,0.525-4.064C478.063,703,478.236,701.659,478.569,700.316Zm5.2,1.695,2.864-3.359A43.813,43.813,0,0,0,479.5,694.3l-2.607,3.168A36.475,36.475,0,0,1,483.774,702.011Zm27.562-8.959-3.163-3.3a28.958,28.958,0,0,1-2.943,2.72c-2.511,2.08-7.521,5.632-10.411,7.68-3.674,2.687-4.229,4.383-1.509,7.1,2.472,2.5,6.469,6.5,8.066,8.511,0.79,0.96,1.537,1.984,2.258,2.976l4.348-3.424c-2.705-3.167-7.937-7.967-9.981-9.983-1.463-1.5-1.433-1.856.523-3.328,2.465-1.823,7.265-5.087,9.638-6.751C509.006,694.652,510.208,693.82,511.336,693.052Zm8.2,1.056-0.358,4.384c3.853-.8,10.5-1.5,13.569-1.824a16.017,16.017,0,0,0-6.48,9.887c-1.219,6.912,4.478,10.527,11.087,10.975l2.277-4.383c-5.357-.288-9.946-2.208-9.02-7.456a12.283,12.283,0,0,1,8.338-8.991,37.509,37.509,0,0,1,6.249-.416l0.691-4.1c-2.251.064-5.811,0.288-9.152,0.544-5.945.512-11.31,0.992-14,1.216C522.08,694.012,520.82,694.076,519.535,694.108Zm37.979-.864-4.916-.064a19.564,19.564,0,0,1-.32,3.264c-0.344,1.952-.973,5.7-1.172,8.639-0.618,8.576,1.863,11.743,5.383,11.743,2.56,0,4.92-1.952,8.014-7.519l-2.511-3.9c-1.059,2.56-3,6.3-4.5,6.3-2.016,0-2.417-3.168-2.052-7.776,0.215-2.3.606-4.7,1-6.783A28.465,28.465,0,0,1,557.514,693.244Zm15.869,0.736-4.3,1.312c2.788,3.968,3.112,11.743,2.715,16.895l4.479-1.632C576.794,705.659,575.774,697.66,573.383,693.98Zm17.494-.736-4.916-.064a19.564,19.564,0,0,1-.32,3.264c-0.344,1.952-.973,5.7-1.172,8.639-0.617,8.576,1.863,11.743,5.383,11.743,2.56,0,4.92-1.952,8.014-7.519l-2.511-3.9c-1.059,2.56-3,6.3-4.5,6.3-2.016,0-2.417-3.168-2.052-7.776,0.214-2.3.606-4.7,1-6.783A28.45,28.45,0,0,1,590.877,693.244Zm15.869,0.736-4.295,1.312c2.788,3.968,3.112,11.743,2.715,16.895l4.479-1.632C610.157,705.659,609.137,697.66,606.746,693.98Z" transform="translate(-58.656 -689.031)"/>
</svg>
