<?xml version="1.0" encoding="UTF-8"?><svg id="_レイヤー_2" xmlns="http://www.w3.org/2000/svg" width="49.9477" height="8.6662" viewBox="0 0 49.9477 8.6662"><g id="Layer_1"><g><rect width="1.7705" height="8.6662"/><path d="M18.4196,2.8423c0-1.3359-.9785-2.8423-3.2151-2.8423h-5.948V8.6662h1.7705v-2.9819h3.3543l2.1279,2.9819h2.0346l-2.2675-3.2148c1.4443-.4662,2.1433-1.5376,2.1433-2.6091Zm-3.6342,1.3509h-3.7584V1.4909h3.7584c1.3043,0,1.7859,.637,1.7859,1.3514,0,.7299-.4816,1.3509-1.7859,1.3509Z"/><polygon points="25.3469 8.6662 34.1214 8.6662 34.1214 7.1752 27.1328 7.1752 27.1328 4.9544 32.9103 4.9544 32.9103 3.4635 27.1328 3.4635 27.1328 1.4755 34.1214 1.4755 34.1214 0 25.3469 0 25.3469 8.6662"/><path d="M46.7796,0h-5.7618V8.6662h1.7705v-3.044h3.9913c2.2362,0,3.1681-1.5376,3.1681-2.8111,0-1.289-.9319-2.8112-3.1681-2.8112Zm-.4195,4.1313h-3.5718V1.5064h3.5718c1.2735,0,1.7396,.6369,1.7396,1.3047s-.4661,1.3201-1.7396,1.3201Z"/></g></g></svg>