<svg xmlns="http://www.w3.org/2000/svg" width="453.437" height="37.03" viewBox="0 0 453.437 37.03">
  <defs>
    <style>
      .cls-1 {
        fill-rule: evenodd;
      }
    </style>
  </defs>
  <path id="Hakuhodo_DY_Group" data-name="Hakuhodo DY Group" class="cls-1" d="M508.943,1639.02h5.92v-12.16h16.2v12.16h5.92v-28.56h-5.92v11.2h-16.2v-11.2h-5.92v28.56Zm55.84-13.24q0-8.19-10.28-8.2-9.72,0-10.96,5.88l5.04,0.48q0.879-2.6,5.72-2.6,5.16,0,5.16,4.08v0.8l-5.24.12q-6.16.165-9.06,1.84a5.433,5.433,0,0,0-2.9,5,5.548,5.548,0,0,0,2.22,4.74,10.259,10.259,0,0,0,6.26,1.66,13.683,13.683,0,0,0,4.94-.82,10.908,10.908,0,0,0,3.94-2.66v2.92h5.16v-13.24Zm-12.48,9.96c-3.067,0-4.6-.98-4.6-2.96a2.463,2.463,0,0,1,1.64-2.32,14.054,14.054,0,0,1,5.16-.84l4.96-.12v1.24a3.792,3.792,0,0,1-1.04,2.68,6.715,6.715,0,0,1-2.68,1.72,9.936,9.936,0,0,1-3.44.6h0Zm18.4,3.28h5.6v-7.92l4.28-3.2,7.72,11.12h6.32l-10.08-14.04,9.08-6.76H586.5l-10.2,7.64v-15.4h-5.6v28.56Zm49.28-20.8h-5.56v11.36a4.848,4.848,0,0,1-1.76,3.76,7.151,7.151,0,0,1-4.88,1.92q-4.56,0-4.56-4.48v-12.56h-5.6v13.56a7.65,7.65,0,0,0,2.16,5.82,8.488,8.488,0,0,0,6.12,2.06,10.512,10.512,0,0,0,4.82-1.06,11.821,11.821,0,0,0,3.78-3.06v3.48h5.48v-20.8Zm6.08,20.8h5.6V1627.7a4.786,4.786,0,0,1,1.76-3.76,6.53,6.53,0,0,1,2.26-1.44,7.551,7.551,0,0,1,2.7-.52,5.218,5.218,0,0,1,3.7,1.1,4.693,4.693,0,0,1,1.14,3.5v12.44h5.6v-13.48a7.677,7.677,0,0,0-2.2-5.94,9.115,9.115,0,0,0-6.36-2.02,10.923,10.923,0,0,0-8.6,3.96v-11.08h-5.6v28.56Zm39.92,0.64a15.24,15.24,0,0,0,6.7-1.36,10.11,10.11,0,0,0,4.36-3.86,11.005,11.005,0,0,0,1.54-5.9,10.21,10.21,0,0,0-3.28-8.06q-3.28-2.895-9.04-2.9a15.28,15.28,0,0,0-6.66,1.36,10.255,10.255,0,0,0-4.36,3.84,10.95,10.95,0,0,0-1.54,5.88,10.266,10.266,0,0,0,3.26,8.1c2.173,1.94,5.18,2.9,9.02,2.9h0Zm0.12-4.28a6.61,6.61,0,0,1-4.94-1.76,6.856,6.856,0,0,1-1.74-5.04,6.121,6.121,0,0,1,6.72-6.72,6.651,6.651,0,0,1,4.94,1.76,8.018,8.018,0,0,1-.02,10,6.682,6.682,0,0,1-4.96,1.76h0Zm41-24.92h-5.6v10.6q-2.76-3.48-8.04-3.48a11.154,11.154,0,0,0-5.74,1.44,9.872,9.872,0,0,0-3.8,3.96,12.257,12.257,0,0,0-1.34,5.84,12.029,12.029,0,0,0,1.28,5.68,9.268,9.268,0,0,0,3.6,3.8,10.527,10.527,0,0,0,5.44,1.36,11.767,11.767,0,0,0,5.02-1.04,9.483,9.483,0,0,0,3.7-2.96v3.36h5.48v-28.56Zm-18.8,18.24a6.988,6.988,0,0,1,1.72-5.08,6.692,6.692,0,0,1,5-1.76,6.462,6.462,0,0,1,4.74,1.76,6.1,6.1,0,0,1,1.78,4.52v1.08a5.732,5.732,0,0,1-.88,3.12,6.257,6.257,0,0,1-2.38,2.22,7.063,7.063,0,0,1-3.46.82,6.364,6.364,0,0,1-4.82-1.76,6.775,6.775,0,0,1-1.7-4.92h0Zm36.12,10.96a15.24,15.24,0,0,0,6.7-1.36,10.11,10.11,0,0,0,4.36-3.86,11.005,11.005,0,0,0,1.54-5.9,10.21,10.21,0,0,0-3.28-8.06q-3.28-2.895-9.04-2.9a15.28,15.28,0,0,0-6.66,1.36,10.255,10.255,0,0,0-4.36,3.84,10.95,10.95,0,0,0-1.54,5.88,10.266,10.266,0,0,0,3.26,8.1c2.173,1.94,5.18,2.9,9.02,2.9h0Zm0.12-4.28a6.61,6.61,0,0,1-4.94-1.76,6.856,6.856,0,0,1-1.74-5.04,6.121,6.121,0,0,1,6.72-6.72,6.651,6.651,0,0,1,4.94,1.76,8.018,8.018,0,0,1-.02,10,6.682,6.682,0,0,1-4.96,1.76h0Zm29.12,3.64h11.92q8.359,0,12.88-3.72t4.52-10.56q0-6.96-4.26-10.62t-12.38-3.66h-12.68v28.56Zm5.84-4.88v-18.8h6.88q10.519,0,10.52,9.36,0,9.45-11.16,9.44H759.5Zm35.6-6.68v11.56h5.92v-11.56l12.12-17h-6.48l-8.48,12.36-8.52-12.36h-6.64Zm62.36-3.88h-13.68v4.52h8.2v5.2a19.3,19.3,0,0,1-8.28,1.6c-3.467,0-6.127-.86-7.98-2.6s-2.78-4.24-2.78-7.52a10.493,10.493,0,0,1,2.56-7.48q2.559-2.715,7.4-2.72a10.545,10.545,0,0,1,5.18,1.12,6.422,6.422,0,0,1,2.86,3.48l5.92-.76a11.535,11.535,0,0,0-4.64-6.32q-3.441-2.355-9.16-2.36a18.94,18.94,0,0,0-8.46,1.8,13.434,13.434,0,0,0-5.7,5.18,15.492,15.492,0,0,0-2.04,8.14,15.1,15.1,0,0,0,2.02,8,13.064,13.064,0,0,0,5.8,5.1,20.961,20.961,0,0,0,9.02,1.78,27.456,27.456,0,0,0,7.52-1.02,19.958,19.958,0,0,0,6.24-2.9v-12.24Zm5.44,15.44h5.6v-11.08a5.053,5.053,0,0,1,1.84-3.88,7.566,7.566,0,0,1,5.04-1.68,11.639,11.639,0,0,1,2.28.24l0.64-4.56c-0.4-.05-0.794-0.1-1.18-0.14a11.085,11.085,0,0,0-1.14-.06,9.24,9.24,0,0,0-7.6,3.88v-3.52H862.9v20.8Zm29.04,0.64a15.24,15.24,0,0,0,6.7-1.36,10.11,10.11,0,0,0,4.36-3.86,11.005,11.005,0,0,0,1.54-5.9,10.21,10.21,0,0,0-3.28-8.06q-3.28-2.895-9.04-2.9a15.28,15.28,0,0,0-6.66,1.36,10.255,10.255,0,0,0-4.36,3.84,10.95,10.95,0,0,0-1.54,5.88,10.266,10.266,0,0,0,3.26,8.1c2.173,1.94,5.18,2.9,9.02,2.9h0Zm0.12-4.28a6.61,6.61,0,0,1-4.94-1.76,6.856,6.856,0,0,1-1.74-5.04,6.121,6.121,0,0,1,6.72-6.72,6.651,6.651,0,0,1,4.94,1.76,8.018,8.018,0,0,1-.02,10,6.682,6.682,0,0,1-4.96,1.76h0Zm39.72-17.16h-5.56v11.36a4.848,4.848,0,0,1-1.76,3.76,7.151,7.151,0,0,1-4.88,1.92q-4.56,0-4.56-4.48v-12.56h-5.6v13.56a7.65,7.65,0,0,0,2.16,5.82,8.488,8.488,0,0,0,6.12,2.06,10.512,10.512,0,0,0,4.82-1.06,11.821,11.821,0,0,0,3.78-3.06v3.48h5.48v-20.8Zm6.08,28.56h5.6V1636.1c1.84,2.38,4.52,3.56,8.04,3.56a11.129,11.129,0,0,0,5.76-1.44,9.848,9.848,0,0,0,3.78-3.98,12.271,12.271,0,0,0,1.34-5.82,12.067,12.067,0,0,0-1.28-5.7,9.416,9.416,0,0,0-3.6-3.78,10.628,10.628,0,0,0-5.44-1.36,12.054,12.054,0,0,0-5.04,1.04,9.22,9.22,0,0,0-3.68,2.96v-3.36h-5.48v28.56Zm12.08-11.4a6.418,6.418,0,0,1-4.74-1.76,6.076,6.076,0,0,1-1.78-4.52v-1.12a5.657,5.657,0,0,1,.88-3.1,6.356,6.356,0,0,1,2.42-2.2,7.321,7.321,0,0,1,3.46-.82,6.378,6.378,0,0,1,4.78,1.74,6.782,6.782,0,0,1,1.7,4.94,7.009,7.009,0,0,1-1.7,5.08,6.644,6.644,0,0,1-5.02,1.76h0Z" transform="translate(-508.938 -1609.75)"/>
</svg>
