<?xml version="1.0" encoding="UTF-8"?><svg id="_レイヤー_2" xmlns="http://www.w3.org/2000/svg" width="751.0493" height="216.8954" viewBox="0 0 751.0493 216.8954"><g id="_レイヤー_1-2"><g><path d="m539.5507,91.0572c-35.7568,11.9652-85.6411,28.3281-88.9549,29.4382.1419.0584,5.1136,2.3725,7.2205,4.5889,3.0049,3.1612,4.9626,8.4564,3.0828,12.9533-5.0276,12.0271-10.1108,24.0309-15.1055,36.0718-2.2365,5.3915-4.6391,13.0214.0852,17.8881,4.1666,4.2921,11.4939,2.5091,16.8761,1.0332,18.3522-5.0323,34.2867-10.4368,53.45-17.1667,8.7475-3.072,29.3867-10.0092,41.1446-20.8883-5.0614.4401-13.1312.4462-11.0585-5.9729.8184-2.5344,8.2069-19.9004,14.8444-35.5111,5.1221-12.0466-8.9268-26.6701-21.5847-22.4345Z" style="fill:#323c55;"/><path d="m726.7005,134.3069c-.3994.0845-56.9852,18.8508-57.0833,18.8825-4.9894,1.6117-9.8974,3.2876-14.8795,4.9219-4.9137,1.6117-9.4938-3.1735-7.5132-7.9505,8.6355-20.8277,25.9394-62.5206,31.8271-76.4009,5.1124-12.0526-8.0923-26.1945-20.7458-21.9483-30.0827,10.0951-73.2791,24.1672-93.7229,31.0024,4.6851,1.3016,12.6111,2.9103,16.0168,9.2278,2.598,4.8192,1.6777,10.0195-.2212,14.6011-10.1107,24.3952-31.5102,75.4965-31.5252,75.5325-1.6393,3.9145-3.1812,8.1063-2.4295,12.4225,2.5824,14.8282,27.1441,7.803,35.8814,5.1335,8.6693-2.6487,168.6509-55.7877,168.7318-55.8145.1641-.0543-1.3703-2.449-1.4548-2.558-1.626-2.0981-3.8059-3.7247-6.1554-4.9211-4.7805-2.4343-11.552-3.2263-16.7264-2.1309Z" style="fill:#323c55;"/><g><path d="m310.6252.0873c.6294-.0285,1.1716-.0742,1.7137-.0744,8.6753-.0045,17.3505-.0185,26.0257.0051,3.1079.0085,6.1049.6199,8.7321,2.3484,4.2638,2.8052,6.2839,6.8417,5.8577,11.9084-.4171,4.9584-3.4177,8.1411-7.7315,10.2503-.5936.2902-1.2173.5193-2.02.858,3.4494,4.8961,6.8417,9.7111,10.4551,14.84-3.2559,0-6.1688.0397-9.0781-.045-.4126-.012-.8981-.5636-1.1965-.9761-2.7661-3.8229-5.5298-7.6485-8.2181-11.5259-.6509-.9388-1.3665-1.2546-2.4768-1.2415-4.5498.0538-9.1006.0225-13.8678.0225v13.6527h-8.1956V.0873Zm8.259,19.207c6.5949,0,12.9868.022,19.3781-.0277.8052-.0063,1.6382-.3119,2.4054-.6132,2.4385-.9576,3.6776-2.8145,3.6889-5.3901.0112-2.5476-1.2146-4.5365-3.647-5.4147-1.3333-.4813-2.8047-.7776-4.2199-.8018-5.3394-.0912-10.6813-.0388-16.0223-.0332-.4889.0005-.9777.0513-1.5832.0852v12.1955Z" style="fill:#323c55;"/><path d="m420.1083,23.0335h-26.5508v10.1681h32.1555v6.9452h-40.5061V.1072h40.4995v6.8113h-32.1684v8.9837h26.5702v7.1313Z" style="fill:#323c55;"/><path d="m466.1347,26.1236v13.9748h-8.2728V.1166c.4749-.0356.9498-.1018,1.4247-.1022,8.5656-.0063,17.1313-.0313,25.6967.0042,6.4485.0267,11.4885,3.2631,13.4589,8.5387,3.0043,8.0436-2.4522,16.7224-11.2315,17.3334-5.979.4161-12.0038.1793-18.0081.2316-.9419.0082-1.8839.0011-3.068.0011Zm.0809-7.1067c6.1446,0,12.1362.0379,18.1264-.0368,1.0143-.0127,2.0885-.3711,3.0201-.8119,2.1485-1.0167,3.2467-2.7995,3.2123-5.1928-.0335-2.335-1.1464-4.1036-3.2968-4.9328-1.414-.5453-3.0002-.8316-4.5204-.8795-3.8282-.1204-7.6628-.04-11.4948-.0401-1.6507,0-3.3013,0-5.0467,0v11.894Z" style="fill:#323c55;"/><path d="m275.761,40.1395h-8.1296V.1304h8.1296v40.0091Z" style="fill:#323c55;"/></g><path d="m183.0563,70.8682c-52.7715,17.5666-105.6256,34.895-158.4164,52.4022-5.5163,1.8294-11.1378,3.7345-15.8348,7.1573C2.7291,134.8555-.0523,140.8318.0007,148.2116c28.2733-9.3525,56.3018-18.6279,84.5892-27.9807,6.2345-2.0613,13.696-4.1666,18.9546-.2339,3.6099,2.6997,5.046,7.5712,4.7434,12.0688-.3026,4.4976-2.0781,8.7472-3.8299,12.9007-7.7918,18.4737-12.6665,30.0845-20.4583,48.5583-2.0437,4.8455-6.0285,14.4109-1.34,18.9952,4.8224,4.7151,13.0649,2.1873,18.9022.5346,14.7262-4.1695,67.4175-21.4409,77.6797-27.082,12.7048-6.9839,15.8941-14.0575,17.2409-15.4872-4.2118,2.0662-21.2036,3.0743-16.9065-7.2055,4.8593-11.6245,9.7466-23.2372,14.6211-34.8552,4.5345-10.8076,8.7878-21.4447,13.352-32.2398,1.3573-3.2102,2.5792-6.6174,3.0454-10.0714.7053-5.2262-.5061-10.9083-4.4074-14.4566-6.4999-5.9118-15.7287-3.2526-23.1308-.7886Z" style="fill:#323c55;"/><path d="m337.2211,158.5494c-4.0182.7892-18.1853,5.4567-22.1003,6.7481-3.9003,1.2865-15.0223,4.9704-15.9651,5.2829-5.3699,1.7801-10.4129-3.8518-8.2331-9.0723,8.4595-20.2604,20.401-49.4227,29.9831-71.9144,2.6301-6.1735,2.0913-12.8818-3.3291-17.2916-5.8126-4.7288-13.3932-5.3761-20.3308-3.0812-14.5302,4.8064-88.6743,29.3324-88.6743,29.3324,7.85,1.8854,15.2002,5.4885,16.1807,11.7735.8061,5.1678-1.6311,9.5453-3.4519,13.9071-9.9124,23.7455-19.8248,47.491-29.7372,71.2364-1.2858,3.0801-5.9563,14.2441,1.9822,19.6056,4.6168,3.1181,10.1411,1.6017,14.7525.0772,47.9208-15.8421,95.7336-31.5287,143.6136-47.4746.2191-3.179-2.2582-5.9765-4.7804-7.5644-2.7104-1.7064-7.1171-2.1133-9.9097-1.5648Z" style="fill:#323c55;"/><path d="m451.7846,134.5951s-1.0985-3.2176-2.7359-4.9195c-5.2699-5.4778-13.0027-4.3296-18.379-2.5722-7.9264,2.5911-80.1014,26.4793-80.0918,26.4889,6.6476.9674,10.4996,8.3059,11.1986,10.8228,29.8797-9.8838,90.0081-29.8201,90.0081-29.8201Z" style="fill:#323c55;"/></g></g></svg>